<svg width="38" height="36" viewBox="0 0 38 36" fill="none" xmlns="http://www.w3.org/2000/svg">
<path d="M25.0559 19.188C25.4879 18.756 25.6679 18.144 25.6679 17.532C25.6679 16.956 25.4879 16.344 25.0559 16.056L14.3999 5.256C13.9679 4.788 13.4999 4.5 12.7439 4.5C12.1679 4.5 11.6999 4.644 11.2679 5.112C10.7999 5.544 10.5119 6.156 10.5119 6.732C10.5119 7.344 10.6559 7.956 11.0879 8.388L20.2679 17.712L10.9439 27.756C10.5119 28.188 10.3679 28.8 10.3679 29.412C10.3679 29.988 10.6559 30.6 11.0879 31.068C11.5559 31.356 12.1679 31.5 12.7439 31.5C13.3559 31.5 13.9679 31.212 14.3999 30.744L25.0559 19.188Z" fill="#DA1C5C"/>
</svg>
