<svg width="165" height="165" viewBox="0 0 165 165" fill="none" xmlns="http://www.w3.org/2000/svg">
<g clip-path="url(#clip0_2010_3)">
<path d="M96.1828 95.2096C96.1828 95.5136 96.2747 95.6891 96.4582 95.6891C96.586 95.6891 96.7066 95.6326 96.8575 95.535L148.284 62.1411C149.186 61.5506 150.013 61.2404 151.248 61.2404H162.55C164.289 61.2404 165.448 62.4001 165.448 64.1386V85.7176C165.448 88.3272 164.87 89.8321 162.551 91.2254L148.842 99.4627C148.659 99.5763 148.512 99.6328 148.382 99.6328C148.216 99.6328 148.063 99.5049 148.063 99.0365L148.065 73.846C148.065 73.5731 147.972 73.3627 147.785 73.3627C147.657 73.3627 147.539 73.4199 147.388 73.5111L109.791 97.9307C108.736 98.6142 107.872 98.8199 106.906 98.8199H81.9821C80.2428 98.8199 79.0839 97.66 79.0839 95.9215V64.8228C79.0839 64.5942 78.9822 64.3855 78.8076 64.3855C78.6806 64.3855 78.5607 64.4409 78.4036 64.5354L53.6077 79.4308C53.3593 79.579 53.2916 79.7022 53.2911 79.8212C53.2911 79.9285 53.3346 80.0277 53.5101 80.2032L71.2202 97.9133C71.4561 98.1499 71.618 98.3292 71.618 98.5142C71.618 98.7229 71.3583 98.8191 71.0568 98.8191L55.0286 98.8199C53.7737 98.8199 52.8051 98.6277 52.1288 97.9514L41.3901 87.2126C41.2852 87.1078 41.1946 87.0426 41.0803 87.0417C40.9844 87.0417 40.8597 87.0886 40.7478 87.1577L22.781 97.9531C21.6951 98.6055 20.9434 98.8199 19.8806 98.8199H3.34533C1.60598 98.8199 0.447754 97.66 0.447754 95.9215V74.7369C0.447754 72.1282 1.03039 70.6319 3.34667 69.2404L17.1386 60.9537C17.2774 60.8686 17.3998 60.833 17.5134 60.833C17.7221 60.833 17.8364 61.0528 17.8364 61.5308V89.8519C17.8364 90.149 17.9181 90.2885 18.1112 90.2885C18.2389 90.2885 18.3644 90.2126 18.5215 90.1173L65.1293 62.1095C66.2389 61.438 66.9234 61.2404 68.2045 61.2404H93.2837C95.0231 61.2404 96.1828 62.4001 96.1828 64.1386V95.2096Z" fill="white"/>
<path d="M96.1828 95.2096C96.1828 95.5136 96.2747 95.6891 96.4582 95.6891C96.586 95.6891 96.7066 95.6326 96.8575 95.535L148.284 62.1411C149.186 61.5506 150.013 61.2404 151.248 61.2404H162.55C164.289 61.2404 165.448 62.4001 165.448 64.1386V85.7176C165.448 88.3272 164.87 89.8321 162.551 91.2254L148.842 99.4627C148.659 99.5763 148.512 99.6328 148.382 99.6328C148.216 99.6328 148.063 99.5049 148.063 99.0365L148.065 73.846C148.065 73.5731 147.972 73.3627 147.785 73.3627C147.657 73.3627 147.539 73.4199 147.388 73.5111L109.791 97.9307C108.736 98.6142 107.872 98.8199 106.906 98.8199H81.9821C80.2428 98.8199 79.0839 97.66 79.0839 95.9215V64.8228C79.0839 64.5942 78.9822 64.3855 78.8076 64.3855C78.6805 64.3855 78.5607 64.4409 78.4036 64.5354L53.6077 79.4308C53.3593 79.579 53.2916 79.7022 53.2911 79.8212C53.2911 79.9285 53.3346 80.0277 53.5101 80.2032L71.2202 97.9133C71.4561 98.1499 71.618 98.3292 71.618 98.5142C71.618 98.7229 71.3583 98.8191 71.0568 98.8191L55.0286 98.8199C53.7737 98.8199 52.8051 98.6277 52.1288 97.9514L41.3901 87.2126C41.2852 87.1078 41.1946 87.0426 41.0803 87.0417C40.9844 87.0417 40.8597 87.0886 40.7477 87.1577L22.781 97.9531C21.6951 98.6055 20.9434 98.8199 19.8806 98.8199H3.34533C1.60598 98.8199 0.447754 97.66 0.447754 95.9215V74.7369C0.447754 72.1282 1.03039 70.6319 3.34667 69.2404L17.1386 60.9537C17.2774 60.8686 17.3998 60.833 17.5134 60.833C17.7221 60.833 17.8364 61.0528 17.8364 61.5308V89.8519C17.8364 90.149 17.9181 90.2885 18.1112 90.2885C18.2389 90.2885 18.3644 90.2126 18.5215 90.1173L65.1292 62.1095C66.2389 61.438 66.9234 61.2404 68.2045 61.2404H93.2837C95.0231 61.2404 96.1828 62.4001 96.1828 64.1386V95.2096Z" fill="white"/>
</g>
<defs>
<clipPath id="clip0_2010_3">
<rect width="165" height="165" fill="white"/>
</clipPath>
</defs>
</svg>
