<svg width="165" height="165" viewBox="0 0 165 165" fill="none" xmlns="http://www.w3.org/2000/svg">
<path d="M95.735 84.3766C95.735 84.6806 95.827 84.8561 96.0105 84.8561C96.1382 84.8561 96.2589 84.7996 96.4098 84.702L147.836 51.3081C148.738 50.7176 149.566 50.4074 150.8 50.4074H162.103C163.841 50.4074 165 51.5671 165 53.3056V74.8846C165 77.4942 164.422 78.9991 162.103 80.3924L148.394 88.6297C148.212 88.7433 148.064 88.7998 147.935 88.7998C147.768 88.7998 147.615 88.6719 147.615 88.2035L147.617 63.013C147.617 62.7401 147.524 62.5297 147.338 62.5297C147.21 62.5297 147.091 62.5869 146.941 62.6781L109.344 87.0977C108.288 87.7812 107.424 87.9869 106.458 87.9869H81.5344C79.795 87.9869 78.6361 86.827 78.6361 85.0885V53.9898C78.6361 53.7612 78.5345 53.5525 78.3598 53.5525C78.2328 53.5525 78.113 53.6079 77.9559 53.7024L53.1599 68.5978C52.9116 68.746 52.8438 68.8692 52.8433 68.9882C52.8433 69.0955 52.8869 69.1947 53.0623 69.3701L70.7724 87.0803C71.0084 87.3169 71.1702 87.4962 71.1702 87.6812C71.1702 87.8899 70.9106 87.9861 70.6091 87.9861L54.5808 87.9869C53.326 87.9869 52.3573 87.7947 51.6811 87.1184L40.9423 76.3796C40.8374 76.2748 40.7469 76.2096 40.6326 76.2087C40.5366 76.2087 40.4119 76.2556 40.3 76.3247L22.3333 87.1201C21.2473 87.7725 20.4956 87.9869 19.4328 87.9869H2.89757C1.15822 87.9869 0 86.827 0 85.0885V63.9039C0 61.2952 0.58264 59.7989 2.89892 58.4074L16.6909 50.1207C16.8297 50.0356 16.952 50 17.0656 50C17.2744 50 17.3886 50.2198 17.3886 50.6977V79.0189C17.3886 79.316 17.4703 79.4555 17.6634 79.4555C17.7911 79.4555 17.9167 79.3796 18.0738 79.2843L64.6815 51.2765C65.7912 50.605 66.4756 50.4074 67.7567 50.4074H92.836C94.5753 50.4074 95.735 51.5671 95.735 53.3056V84.3766Z" fill="white"/>
<path d="M0.792969 101.239H2.10513L6.40442 111.229L10.7039 101.239H11.9994V113.252H10.8778V103.373L6.62592 113.252H6.16731L1.9154 103.373V113.252H0.792969V101.239Z" fill="white"/>
<path d="M17.7095 112.604C19.4162 112.604 20.5069 111.292 20.5069 109.08V108.81C20.5069 106.613 19.4162 105.27 17.7095 105.27C16.0027 105.27 14.912 106.613 14.912 108.81V109.08C14.912 111.292 16.0027 112.604 17.7095 112.604ZM13.8054 108.81C13.8054 106.107 15.4017 104.385 17.7095 104.385C20.0172 104.385 21.6137 106.107 21.6137 108.81V109.08C21.6137 111.782 20.0172 113.489 17.7095 113.489C15.4017 113.489 13.8054 111.782 13.8054 109.08V108.81Z" fill="white"/>
<path d="M23.1809 104.622L25.9783 112.098L28.8084 104.622H29.8984L26.5953 113.252H25.3307L22.0276 104.622H23.1809Z" fill="white"/>
<path d="M36.6186 108.415C36.5711 106.186 35.4804 105.27 34.0896 105.27C32.6669 105.27 31.5127 106.487 31.4182 108.415H36.6186ZM30.3118 108.715C30.3118 106.186 31.8454 104.384 34.0896 104.384C36.2392 104.384 37.6935 105.808 37.6935 108.811V109.269H31.4024C31.466 111.134 32.4933 112.604 34.2005 112.604C35.7019 112.604 36.6822 111.845 37.2514 111.292V112.461C36.6028 113.046 35.5122 113.489 34.2005 113.489C31.7659 113.489 30.3118 111.687 30.3118 109.079V108.715Z" fill="white"/>
<path d="M39.3225 104.622H40.271L40.3814 106.392C40.9348 105.333 41.9302 104.384 43.3376 104.384C44.6651 104.384 45.5183 105.096 45.7716 106.455C46.3567 105.365 47.3681 104.384 48.7905 104.384C50.4028 104.384 51.3195 105.428 51.3195 107.404V113.252H50.2448V107.562C50.2448 106.06 49.8176 105.269 48.6325 105.269C47.5576 105.269 46.2145 106.503 45.8502 107.878V113.252H44.7762V107.562C44.7762 106.06 44.3649 105.269 43.1798 105.269C42.1048 105.269 40.7609 106.503 40.3974 107.878V113.252H39.3225V104.622Z" fill="white"/>
<path d="M59.187 108.415C59.1394 106.186 58.0488 105.27 56.658 105.27C55.2352 105.27 54.0812 106.487 53.9866 108.415H59.187ZM52.8801 108.715C52.8801 106.186 54.4138 104.384 56.658 104.384C58.8075 104.384 60.2619 105.808 60.2619 108.811V109.269H53.9708C54.0343 111.134 55.0616 112.604 56.769 112.604C58.2703 112.604 59.2505 111.845 59.8197 111.292V112.461C59.1712 113.046 58.0805 113.489 56.769 113.489C54.3345 113.489 52.8801 111.687 52.8801 109.079V108.715Z" fill="white"/>
<path d="M61.8906 104.622H62.8391L62.9495 106.613C63.5029 105.523 64.6412 104.384 66.1899 104.384C67.976 104.384 68.9089 105.507 68.9089 107.562V113.252H67.834V107.72C67.834 106.139 67.3752 105.269 66.032 105.269C64.7356 105.269 63.313 106.724 62.9653 108.241V113.252H61.8906V104.622Z" fill="white"/>
<path d="M69.8894 104.622H71.8017V101.999H72.8765V104.622H74.7888V105.523H72.8765V113.253H71.8017V105.523H69.8894V104.622Z" fill="white"/>
<path d="M79.6726 104.622H81.5849V101.999H82.6598V104.622H84.5729V105.523H82.6598V113.253H81.5849V105.523H79.6726V104.622Z" fill="white"/>
<path d="M85.8049 101.145H86.8796V106.566C87.433 105.492 88.5704 104.385 90.0883 104.385C91.8743 104.385 92.8072 105.507 92.8072 107.562V113.253H91.7323V107.72C91.7323 106.139 91.2735 105.27 89.9303 105.27C88.6499 105.27 87.2591 106.677 86.8796 108.179V113.253H85.8049V101.145Z" fill="white"/>
<path d="M97.0424 112.604C98.0696 112.604 99.4295 111.909 100.173 110.565V108.668L98.5285 108.984C97.3426 109.206 96.1417 109.364 95.6358 110.027C95.4143 110.312 95.3517 110.628 95.3517 111.008C95.3517 112.098 96.0472 112.604 97.0424 112.604ZM94.672 109.617C95.146 108.905 96.0939 108.573 97.8489 108.241L100.173 107.799C100.173 106.123 99.4453 105.27 97.8331 105.27C96.5685 105.27 95.5891 105.855 94.9087 106.55V105.459C95.5256 104.89 96.5526 104.385 97.8331 104.385C99.8876 104.385 101.232 105.412 101.232 107.546V113.252H100.442L100.173 111.767C99.4135 112.81 98.1649 113.489 96.8209 113.489C95.3199 113.489 94.261 112.652 94.261 111.039C94.261 110.518 94.3714 110.059 94.672 109.617Z" fill="white"/>
<path d="M102.188 104.622H104.102V101.999H105.176V104.622H107.088V105.523H105.176V113.253H104.102V105.523H102.188V104.622Z" fill="white"/>
<path d="M113.078 104.621H114.153V113.252H113.078V104.621ZM113.078 101.46H114.153V102.993H113.078V101.46Z" fill="white"/>
<path d="M116.257 104.622H117.205L117.315 106.613C117.869 105.523 119.007 104.384 120.556 104.384C122.342 104.384 123.275 105.507 123.275 107.562V113.252H122.2V107.72C122.2 106.139 121.742 105.269 120.398 105.269C119.102 105.269 117.679 106.724 117.331 108.241V113.252H116.257V104.622Z" fill="white"/>
<path d="M124.899 111.276C125.689 112.177 126.479 112.604 127.586 112.604C128.834 112.604 129.688 112.035 129.688 111.103C129.688 110.47 129.482 109.996 128.361 109.522L127.048 108.969C125.673 108.384 125.009 107.672 125.009 106.614C125.009 105.459 126.021 104.384 127.839 104.384C128.93 104.384 129.877 104.859 130.478 105.365V106.598C129.64 105.712 128.677 105.27 127.839 105.27C126.621 105.27 126.115 105.918 126.115 106.614C126.115 107.23 126.59 107.577 127.57 107.988L128.834 108.526C130.241 109.127 130.794 109.901 130.794 111.055C130.794 112.525 129.482 113.49 127.586 113.49C126.227 113.49 125.452 113.031 124.899 112.509V111.276Z" fill="white"/>
<path d="M136.239 112.604C137.867 112.604 138.974 111.134 138.974 108.922C138.974 106.74 137.867 105.27 136.239 105.27C135.022 105.27 133.868 106.361 133.457 107.688V110.186C133.868 111.513 135.022 112.604 136.239 112.604ZM132.382 104.622H133.33L133.426 106.171C134.041 105.144 135.116 104.385 136.333 104.385C138.531 104.385 140.08 106.187 140.08 108.922C140.08 111.687 138.531 113.489 136.333 113.489C135.132 113.489 134.089 112.746 133.457 111.767V116.729H132.382V104.622Z" fill="white"/>
<path d="M141.723 104.621H142.798V113.252H141.723V104.621ZM141.723 101.46H142.798V102.993H141.723V101.46Z" fill="white"/>
<path d="M144.901 104.622H145.85L145.944 106.155C146.466 105.096 147.287 104.384 148.521 104.384C148.869 104.384 149.248 104.448 149.39 104.511V105.459C149.169 105.38 148.853 105.317 148.442 105.317C147.383 105.317 146.403 106.139 145.976 107.451V113.252H144.901V104.622Z" fill="white"/>
<path d="M156.118 108.415C156.071 106.186 154.98 105.27 153.589 105.27C152.167 105.27 151.013 106.487 150.918 108.415H156.118ZM149.812 108.715C149.812 106.186 151.345 104.384 153.589 104.384C155.739 104.384 157.193 105.808 157.193 108.811V109.269H150.902C150.966 111.134 151.994 112.604 153.7 112.604C155.202 112.604 156.182 111.845 156.751 111.292V112.461C156.103 113.046 155.013 113.489 153.7 113.489C151.266 113.489 149.812 111.687 149.812 109.079V108.715Z" fill="white"/>
<path d="M158.339 111.276C159.128 112.177 159.919 112.604 161.026 112.604C162.274 112.604 163.128 112.035 163.128 111.103C163.128 110.47 162.922 109.996 161.801 109.522L160.488 108.969C159.113 108.384 158.449 107.672 158.449 106.614C158.449 105.459 159.46 104.384 161.278 104.384C162.37 104.384 163.318 104.859 163.918 105.365V106.598C163.08 105.712 162.116 105.27 161.278 105.27C160.061 105.27 159.555 105.918 159.555 106.614C159.555 107.23 160.029 107.577 161.01 107.988L162.274 108.526C163.681 109.127 164.234 109.901 164.234 111.055C164.234 112.525 162.922 113.49 161.026 113.49C159.666 113.49 158.892 113.031 158.339 112.509V111.276Z" fill="white"/>
<path d="M95.735 84.3766C95.735 84.6806 95.827 84.8561 96.0105 84.8561C96.1382 84.8561 96.2589 84.7996 96.4098 84.702L147.836 51.3081C148.738 50.7176 149.566 50.4074 150.8 50.4074H162.103C163.841 50.4074 165 51.5671 165 53.3056V74.8846C165 77.4942 164.422 78.9991 162.103 80.3924L148.394 88.6297C148.212 88.7433 148.064 88.7998 147.935 88.7998C147.768 88.7998 147.615 88.6719 147.615 88.2035L147.617 63.013C147.617 62.7401 147.524 62.5297 147.338 62.5297C147.21 62.5297 147.091 62.5869 146.941 62.6781L109.344 87.0977C108.288 87.7812 107.424 87.9869 106.458 87.9869H81.5344C79.795 87.9869 78.6361 86.827 78.6361 85.0885V53.9898C78.6361 53.7612 78.5345 53.5525 78.3598 53.5525C78.2328 53.5525 78.113 53.6079 77.9559 53.7024L53.1599 68.5978C52.9116 68.746 52.8438 68.8692 52.8433 68.9882C52.8433 69.0955 52.8869 69.1947 53.0623 69.3701L70.7724 87.0803C71.0084 87.3169 71.1702 87.4962 71.1702 87.6812C71.1702 87.8899 70.9106 87.9861 70.6091 87.9861L54.5808 87.9869C53.326 87.9869 52.3573 87.7947 51.6811 87.1184L40.9423 76.3796C40.8374 76.2748 40.7469 76.2096 40.6326 76.2087C40.5366 76.2087 40.4119 76.2556 40.3 76.3247L22.3333 87.1201C21.2473 87.7725 20.4956 87.9869 19.4328 87.9869H2.89757C1.15822 87.9869 0 86.827 0 85.0885V63.9039C0 61.2952 0.58264 59.7989 2.89892 58.4074L16.6909 50.1207C16.8297 50.0356 16.952 50 17.0656 50C17.2744 50 17.3886 50.2198 17.3886 50.6977V79.0189C17.3886 79.316 17.4703 79.4555 17.6634 79.4555C17.7911 79.4555 17.9167 79.3796 18.0738 79.2843L64.6815 51.2765C65.7912 50.605 66.4756 50.4074 67.7567 50.4074H92.836C94.5753 50.4074 95.735 51.5671 95.735 53.3056V84.3766Z" fill="white"/>
<path d="M0.792969 101.239H2.10513L6.40442 111.229L10.7039 101.239H11.9994V113.252H10.8778V103.373L6.62592 113.252H6.16731L1.9154 103.373V113.252H0.792969V101.239Z" fill="white"/>
<path d="M17.7095 112.604C19.4162 112.604 20.5069 111.292 20.5069 109.08V108.81C20.5069 106.613 19.4162 105.27 17.7095 105.27C16.0027 105.27 14.912 106.613 14.912 108.81V109.08C14.912 111.292 16.0027 112.604 17.7095 112.604ZM13.8054 108.81C13.8054 106.107 15.4017 104.385 17.7095 104.385C20.0172 104.385 21.6137 106.107 21.6137 108.81V109.08C21.6137 111.782 20.0172 113.489 17.7095 113.489C15.4017 113.489 13.8054 111.782 13.8054 109.08V108.81Z" fill="white"/>
<path d="M23.1809 104.622L25.9783 112.098L28.8084 104.622H29.8984L26.5953 113.252H25.3307L22.0276 104.622H23.1809Z" fill="white"/>
<path d="M36.6186 108.415C36.5711 106.186 35.4804 105.27 34.0896 105.27C32.6669 105.27 31.5127 106.487 31.4182 108.415H36.6186ZM30.3118 108.715C30.3118 106.186 31.8454 104.384 34.0896 104.384C36.2392 104.384 37.6935 105.808 37.6935 108.811V109.269H31.4024C31.466 111.134 32.4933 112.604 34.2005 112.604C35.7019 112.604 36.6822 111.845 37.2514 111.292V112.461C36.6028 113.046 35.5122 113.489 34.2005 113.489C31.7659 113.489 30.3118 111.687 30.3118 109.079V108.715Z" fill="white"/>
<path d="M39.3225 104.622H40.271L40.3814 106.392C40.9348 105.333 41.9302 104.384 43.3376 104.384C44.6651 104.384 45.5183 105.096 45.7716 106.455C46.3567 105.365 47.3681 104.384 48.7905 104.384C50.4028 104.384 51.3195 105.428 51.3195 107.404V113.252H50.2448V107.562C50.2448 106.06 49.8176 105.269 48.6325 105.269C47.5576 105.269 46.2145 106.503 45.8502 107.878V113.252H44.7762V107.562C44.7762 106.06 44.3649 105.269 43.1798 105.269C42.1048 105.269 40.7609 106.503 40.3974 107.878V113.252H39.3225V104.622Z" fill="white"/>
<path d="M59.187 108.415C59.1394 106.186 58.0488 105.27 56.658 105.27C55.2352 105.27 54.0812 106.487 53.9866 108.415H59.187ZM52.8801 108.715C52.8801 106.186 54.4138 104.384 56.658 104.384C58.8075 104.384 60.2619 105.808 60.2619 108.811V109.269H53.9708C54.0343 111.134 55.0616 112.604 56.769 112.604C58.2703 112.604 59.2505 111.845 59.8197 111.292V112.461C59.1712 113.046 58.0805 113.489 56.769 113.489C54.3345 113.489 52.8801 111.687 52.8801 109.079V108.715Z" fill="white"/>
<path d="M61.8906 104.622H62.8391L62.9495 106.613C63.5029 105.523 64.6412 104.384 66.1899 104.384C67.976 104.384 68.9089 105.507 68.9089 107.562V113.252H67.834V107.72C67.834 106.139 67.3752 105.269 66.032 105.269C64.7356 105.269 63.313 106.724 62.9653 108.241V113.252H61.8906V104.622Z" fill="white"/>
<path d="M69.8894 104.622H71.8017V101.999H72.8765V104.622H74.7888V105.523H72.8765V113.253H71.8017V105.523H69.8894V104.622Z" fill="white"/>
<path d="M79.6726 104.622H81.5849V101.999H82.6598V104.622H84.5729V105.523H82.6598V113.253H81.5849V105.523H79.6726V104.622Z" fill="white"/>
<path d="M85.8049 101.145H86.8796V106.566C87.433 105.492 88.5704 104.385 90.0883 104.385C91.8743 104.385 92.8072 105.507 92.8072 107.562V113.253H91.7323V107.72C91.7323 106.139 91.2735 105.27 89.9303 105.27C88.6499 105.27 87.2591 106.677 86.8796 108.179V113.253H85.8049V101.145Z" fill="white"/>
<path d="M97.0424 112.604C98.0696 112.604 99.4295 111.909 100.173 110.565V108.668L98.5285 108.984C97.3426 109.206 96.1417 109.364 95.6358 110.027C95.4143 110.312 95.3517 110.628 95.3517 111.008C95.3517 112.098 96.0472 112.604 97.0424 112.604ZM94.672 109.617C95.146 108.905 96.0939 108.573 97.8489 108.241L100.173 107.799C100.173 106.123 99.4453 105.27 97.8331 105.27C96.5685 105.27 95.5891 105.855 94.9087 106.55V105.459C95.5256 104.89 96.5526 104.385 97.8331 104.385C99.8876 104.385 101.232 105.412 101.232 107.546V113.252H100.442L100.173 111.767C99.4135 112.81 98.1649 113.489 96.8209 113.489C95.3199 113.489 94.261 112.652 94.261 111.039C94.261 110.518 94.3714 110.059 94.672 109.617Z" fill="white"/>
<path d="M102.188 104.622H104.102V101.999H105.176V104.622H107.088V105.523H105.176V113.253H104.102V105.523H102.188V104.622Z" fill="white"/>
<path d="M113.078 104.621H114.153V113.252H113.078V104.621ZM113.078 101.46H114.153V102.993H113.078V101.46Z" fill="white"/>
<path d="M116.257 104.622H117.205L117.315 106.613C117.869 105.523 119.007 104.384 120.556 104.384C122.342 104.384 123.275 105.507 123.275 107.562V113.252H122.2V107.72C122.2 106.139 121.742 105.269 120.398 105.269C119.102 105.269 117.679 106.724 117.331 108.241V113.252H116.257V104.622Z" fill="white"/>
<path d="M124.899 111.276C125.689 112.177 126.479 112.604 127.586 112.604C128.834 112.604 129.688 112.035 129.688 111.103C129.688 110.47 129.482 109.996 128.361 109.522L127.048 108.969C125.673 108.384 125.009 107.672 125.009 106.614C125.009 105.459 126.021 104.384 127.839 104.384C128.93 104.384 129.877 104.859 130.478 105.365V106.598C129.64 105.712 128.677 105.27 127.839 105.27C126.621 105.27 126.115 105.918 126.115 106.614C126.115 107.23 126.59 107.577 127.57 107.988L128.834 108.526C130.241 109.127 130.794 109.901 130.794 111.055C130.794 112.525 129.482 113.49 127.586 113.49C126.227 113.49 125.452 113.031 124.899 112.509V111.276Z" fill="white"/>
<path d="M136.239 112.604C137.867 112.604 138.974 111.134 138.974 108.922C138.974 106.74 137.867 105.27 136.239 105.27C135.022 105.27 133.868 106.361 133.457 107.688V110.186C133.868 111.513 135.022 112.604 136.239 112.604ZM132.382 104.622H133.33L133.426 106.171C134.041 105.144 135.116 104.385 136.333 104.385C138.531 104.385 140.08 106.187 140.08 108.922C140.08 111.687 138.531 113.489 136.333 113.489C135.132 113.489 134.089 112.746 133.457 111.767V116.729H132.382V104.622Z" fill="white"/>
<path d="M141.723 104.621H142.798V113.252H141.723V104.621ZM141.723 101.46H142.798V102.993H141.723V101.46Z" fill="white"/>
<path d="M144.901 104.622H145.85L145.944 106.155C146.466 105.096 147.287 104.384 148.521 104.384C148.869 104.384 149.248 104.448 149.39 104.511V105.459C149.169 105.38 148.853 105.317 148.442 105.317C147.383 105.317 146.403 106.139 145.976 107.451V113.252H144.901V104.622Z" fill="white"/>
<path d="M156.118 108.415C156.071 106.186 154.98 105.27 153.589 105.27C152.167 105.27 151.013 106.487 150.918 108.415H156.118ZM149.812 108.715C149.812 106.186 151.345 104.384 153.589 104.384C155.739 104.384 157.193 105.808 157.193 108.811V109.269H150.902C150.966 111.134 151.994 112.604 153.7 112.604C155.202 112.604 156.182 111.845 156.751 111.292V112.461C156.103 113.046 155.013 113.489 153.7 113.489C151.266 113.489 149.812 111.687 149.812 109.079V108.715Z" fill="white"/>
<path d="M158.339 111.276C159.128 112.177 159.919 112.604 161.026 112.604C162.274 112.604 163.128 112.035 163.128 111.103C163.128 110.47 162.922 109.996 161.801 109.522L160.488 108.969C159.113 108.384 158.449 107.672 158.449 106.614C158.449 105.459 159.46 104.384 161.278 104.384C162.37 104.384 163.318 104.859 163.918 105.365V106.598C163.08 105.712 162.116 105.27 161.278 105.27C160.061 105.27 159.555 105.918 159.555 106.614C159.555 107.23 160.029 107.577 161.01 107.988L162.274 108.526C163.681 109.127 164.234 109.901 164.234 111.055C164.234 112.525 162.922 113.49 161.026 113.49C159.666 113.49 158.892 113.031 158.339 112.509V111.276Z" fill="white"/>
</svg>
