<svg width="50" height="50" viewBox="0 0 50 50" fill="none" xmlns="http://www.w3.org/2000/svg">
<rect x="0.5" y="0.5" width="49" height="49" rx="24.5" stroke="white"/>
<path d="M24.5049 18.885C21.3994 18.885 18.8945 21.3899 18.8945 24.4954C18.8945 27.6008 21.3994 30.1057 24.5049 30.1057C27.6104 30.1057 30.1152 27.6008 30.1152 24.4954C30.1152 21.3899 27.6104 18.885 24.5049 18.885ZM24.5049 28.1428C22.498 28.1428 20.8574 26.5071 20.8574 24.4954C20.8574 22.4836 22.4932 20.8479 24.5049 20.8479C26.5166 20.8479 28.1523 22.4836 28.1523 24.4954C28.1523 26.5071 26.5117 28.1428 24.5049 28.1428ZM31.6533 18.6555C31.6533 19.3831 31.0674 19.9641 30.3447 19.9641C29.6172 19.9641 29.0361 19.3782 29.0361 18.6555C29.0361 17.9329 29.6221 17.3469 30.3447 17.3469C31.0674 17.3469 31.6533 17.9329 31.6533 18.6555ZM35.3691 19.9836C35.2861 18.2307 34.8857 16.678 33.6016 15.3987C32.3223 14.1194 30.7695 13.719 29.0166 13.6311C27.21 13.5286 21.7949 13.5286 19.9883 13.6311C18.2402 13.7141 16.6875 14.1145 15.4033 15.3938C14.1191 16.6731 13.7236 18.2258 13.6357 19.9788C13.5332 21.7854 13.5332 27.2004 13.6357 29.0071C13.7188 30.76 14.1191 32.3127 15.4033 33.592C16.6875 34.8713 18.2354 35.2717 19.9883 35.3596C21.7949 35.4622 27.21 35.4622 29.0166 35.3596C30.7695 35.2766 32.3223 34.8762 33.6016 33.592C34.8809 32.3127 35.2812 30.76 35.3691 29.0071C35.4717 27.2004 35.4717 21.7903 35.3691 19.9836ZM33.0352 30.9456C32.6543 31.9026 31.917 32.6399 30.9551 33.0256C29.5146 33.5969 26.0967 33.4651 24.5049 33.4651C22.9131 33.4651 19.4902 33.592 18.0547 33.0256C17.0977 32.6448 16.3604 31.9075 15.9746 30.9456C15.4033 29.5051 15.5352 26.0872 15.5352 24.4954C15.5352 22.9036 15.4082 19.4807 15.9746 18.0452C16.3555 17.0881 17.0928 16.3508 18.0547 15.9651C19.4951 15.3938 22.9131 15.5256 24.5049 15.5256C26.0967 15.5256 29.5195 15.3987 30.9551 15.9651C31.9121 16.3459 32.6494 17.0833 33.0352 18.0452C33.6064 19.4856 33.4746 22.9036 33.4746 24.4954C33.4746 26.0872 33.6064 29.51 33.0352 30.9456Z" fill="white"/>
</svg>
