<svg width="50" height="50" viewBox="0 0 50 50" fill="none" xmlns="http://www.w3.org/2000/svg">
<rect x="0.5" y="0.5" width="49" height="49" rx="24.5" stroke="white"/>
<path d="M36.4776 18.8164C36.1901 17.7078 35.3429 16.8347 34.2673 16.5384C32.3177 16 24.5 16 24.5 16C24.5 16 16.6823 16 14.7327 16.5384C13.6571 16.8347 12.8099 17.7078 12.5224 18.8164C12 20.8258 12 25.0182 12 25.0182C12 25.0182 12 29.2106 12.5224 31.22C12.8099 32.3286 13.6571 33.1653 14.7327 33.4616C16.6823 34 24.5 34 24.5 34C24.5 34 32.3177 34 34.2673 33.4616C35.3429 33.1653 36.1901 32.3286 36.4776 31.22C37 29.2106 37 25.0182 37 25.0182C37 25.0182 37 20.8258 36.4776 18.8164ZM21.9432 28.8246V21.2118L28.4772 25.0183L21.9432 28.8246Z" fill="white"/>
</svg>
