<svg width="16" height="26" viewBox="0 0 16 26" fill="none" xmlns="http://www.w3.org/2000/svg">
<path d="M13.4537 0C12.8076 0 12.1995 0.277333 11.8575 0.589333L0.608076 10.9893C0.152019 11.4053 0 11.9947 0 12.5493C0 13.1387 0.152019 13.728 0.608076 14.144L11.8575 25.272C12.3515 25.7227 12.8076 26 13.4537 26C14.0998 26 14.7078 25.8613 15.2019 25.4107C15.658 24.9947 16 24.4053 16 23.816C16 23.2613 15.81 22.672 15.2019 22.256L5.54869 12.5493L15.2019 3.46667C15.5059 3.18933 15.81 2.73867 15.81 2.14933C15.81 1.59467 15.658 1.00533 15.2019 0.589333C14.5558 0.138667 14.0998 0 13.4537 0Z" fill="#DA1C5C"/>
</svg>
