<svg width="330" height="128" viewBox="0 0 330 128" fill="none" xmlns="http://www.w3.org/2000/svg">
<path d="M37.6684 125C30.785 125 24.485 123.483 18.7684 120.45C13.0517 117.3 8.50169 113.042 5.11836 107.675C1.85169 102.192 0.218359 96.0083 0.218359 89.125C0.218359 83.875 1.38503 78.9167 3.71836 74.25C6.05169 69.5833 9.31836 65.6167 13.5184 62.35C9.78503 59.2 6.75169 55.4667 4.41836 51.15C2.20169 46.7167 1.09336 42.1667 1.09336 37.5C1.09336 30.7333 2.72669 24.725 5.99336 19.475C9.26003 14.225 13.6934 10.0833 19.2934 7.05C24.8934 4.01666 31.0184 2.49999 37.6684 2.49999H90.8684V29.625H44.3184C42.2184 29.625 40.2934 30.0333 38.5434 30.85C36.91 31.6667 35.5684 32.8333 34.5184 34.35C33.585 35.8667 33.1184 37.675 33.1184 39.775C33.1184 41.7583 33.585 43.5083 34.5184 45.025C35.5684 46.425 36.91 47.5917 38.5434 48.525C40.2934 49.3417 42.2184 49.75 44.3184 49.75H84.7434V76.7H44.6684C42.4517 76.7 40.4684 77.1667 38.7184 78.1C36.9684 78.9167 35.5684 80.1417 34.5184 81.775C33.585 83.4083 33.1184 85.275 33.1184 87.375C33.1184 89.475 33.585 91.3417 34.5184 92.975C35.5684 94.4917 36.9684 95.7167 38.7184 96.65C40.4684 97.4667 42.4517 97.875 44.6684 97.875H90.8684V125H37.6684ZM161.724 127.275C155.658 127.275 150.233 125.875 145.449 123.075C140.666 120.158 137.224 115.9 135.124 110.3L97.3242 2.49999H132.674L159.974 93.675C160.208 94.1417 160.441 94.55 160.674 94.9C161.024 95.25 161.374 95.425 161.724 95.425C162.191 95.425 162.599 95.25 162.949 94.9C163.299 94.55 163.533 94.1417 163.649 93.675L190.949 2.49999H226.124L188.499 110.125C186.399 115.842 182.899 120.158 177.999 123.075C173.216 125.875 167.791 127.275 161.724 127.275ZM250.857 125L277.457 84.75C276.173 84.75 274.832 84.75 273.432 84.75C272.032 84.6333 270.632 84.5167 269.232 84.4C261.882 83.4667 255.407 81.1333 249.807 77.4C244.323 73.6667 240.007 68.825 236.857 62.875C233.823 56.925 232.307 50.3333 232.307 43.1C232.307 35.2833 234.232 28.1667 238.082 21.75C242.048 15.3333 247.648 10.2 254.882 6.34999C262.115 2.5 270.807 0.574996 280.957 0.574996C291.107 0.574996 299.74 2.5 306.857 6.34999C314.09 10.0833 319.632 15.1583 323.482 21.575C327.332 27.9917 329.257 35.1667 329.257 43.1C329.257 48.35 328.615 53.425 327.332 58.325C326.048 63.1083 324.24 67.8333 321.907 72.5C319.573 77.1667 316.773 81.95 313.507 86.85L287.957 125H250.857ZM280.957 59.375C284.69 59.375 287.782 58.675 290.232 57.275C292.682 55.7583 294.49 53.8333 295.657 51.5C296.94 49.1667 297.582 46.6 297.582 43.8C297.582 40.8833 296.94 38.3167 295.657 36.1C294.49 33.7667 292.682 31.9583 290.232 30.675C287.782 29.275 284.69 28.575 280.957 28.575C277.223 28.575 274.073 29.275 271.507 30.675C269.057 31.9583 267.19 33.7667 265.907 36.1C264.623 38.3167 263.982 40.8833 263.982 43.8C263.982 46.6 264.623 49.1667 265.907 51.5C267.19 53.8333 269.057 55.7583 271.507 57.275C274.073 58.675 277.223 59.375 280.957 59.375Z" fill="white"/>
</svg>
