<svg width="630" height="351" viewBox="0 0 630 351" fill="none" xmlns="http://www.w3.org/2000/svg">
<rect x="314.853" y="242.705" width="40" height="79.9998" transform="rotate(-135 314.853 242.705)" fill="white"/>
<rect x="314.853" y="186.137" width="40" height="79.9998" transform="rotate(-135 314.853 186.137)" fill="white"/>
<rect x="314.853" y="129.568" width="40" height="39.9999" transform="rotate(-135 314.853 129.568)" fill="white"/>
<rect x="378.209" y="179.349" width="30.4" height="30.3999" transform="rotate(-135 378.209 179.349)" fill="white"/>
<rect x="279.78" y="207.633" width="30.4" height="30.3999" transform="rotate(-135 279.78 207.633)" fill="white"/>
<rect x="251.495" y="179.349" width="21.6" height="21.5999" transform="rotate(-135 251.495 179.349)" fill="white"/>
<path d="M227.293 315.456C224.583 315.456 222.125 314.873 219.921 313.708C217.743 312.517 216.02 310.883 214.753 308.806C213.512 306.703 212.891 304.335 212.891 301.7C212.891 299.065 213.512 296.709 214.753 294.632C216.02 292.529 217.743 290.895 219.921 289.73C222.125 288.539 224.595 287.944 227.331 287.944C229.637 287.944 231.714 288.349 233.563 289.16C235.438 289.971 237.009 291.136 238.275 292.656L234.323 296.304C232.525 294.227 230.295 293.188 227.635 293.188C225.989 293.188 224.519 293.555 223.227 294.29C221.935 294.999 220.922 296 220.187 297.292C219.478 298.584 219.123 300.053 219.123 301.7C219.123 303.347 219.478 304.816 220.187 306.108C220.922 307.4 221.935 308.413 223.227 309.148C224.519 309.857 225.989 310.212 227.635 310.212C230.295 310.212 232.525 309.161 234.323 307.058L238.275 310.706C237.009 312.251 235.438 313.429 233.563 314.24C231.689 315.051 229.599 315.456 227.293 315.456ZM254.105 287.944C256.563 287.944 258.703 288.425 260.527 289.388C262.351 290.351 263.77 291.769 264.783 293.644C265.797 295.519 266.303 297.786 266.303 300.446V315H260.147V308.616H247.987V315H241.907V300.446C241.907 297.786 242.414 295.519 243.427 293.644C244.441 291.769 245.859 290.351 247.683 289.388C249.507 288.425 251.648 287.944 254.105 287.944ZM260.147 303.676V299.876C260.147 297.672 259.603 296.013 258.513 294.898C257.424 293.758 255.942 293.188 254.067 293.188C252.167 293.188 250.673 293.758 249.583 294.898C248.519 296.013 247.987 297.672 247.987 299.876V303.676H260.147ZM296.928 288.4V315H290.772V304.094H278.688V315H272.532V288.4H278.688V298.888H290.772V288.4H296.928ZM315.41 287.944C317.867 287.944 320.008 288.425 321.832 289.388C323.656 290.351 325.075 291.769 326.088 293.644C327.101 295.519 327.608 297.786 327.608 300.446V315H321.452V308.616H309.292V315H303.212V300.446C303.212 297.786 303.719 295.519 304.732 293.644C305.745 291.769 307.164 290.351 308.988 289.388C310.812 288.425 312.953 287.944 315.41 287.944ZM321.452 303.676V299.876C321.452 297.672 320.907 296.013 319.818 294.898C318.729 293.758 317.247 293.188 315.372 293.188C313.472 293.188 311.977 293.758 310.888 294.898C309.824 296.013 309.292 297.672 309.292 299.876V303.676H321.452ZM344.894 288.134C348.618 288.134 351.519 289.046 353.596 290.87C355.699 292.694 356.75 295.253 356.75 298.546C356.75 301.662 355.8 304.107 353.9 305.88C352.026 307.653 349.391 308.54 345.996 308.54C344.882 308.54 343.792 308.426 342.728 308.198C341.69 307.97 340.562 307.59 339.346 307.058V315H333.266V299.268C333.266 295.696 334.254 292.947 336.23 291.022C338.232 289.097 341.12 288.134 344.894 288.134ZM344.932 303.904C346.731 303.904 348.112 303.448 349.074 302.536C350.062 301.624 350.556 300.332 350.556 298.66C350.556 296.963 350.062 295.645 349.074 294.708C348.112 293.771 346.769 293.302 345.046 293.302C343.248 293.302 341.842 293.821 340.828 294.86C339.84 295.899 339.346 297.355 339.346 299.23V302.194C340.106 302.726 340.968 303.144 341.93 303.448C342.918 303.752 343.919 303.904 344.932 303.904ZM384.599 288.4V315H378.633V311.77C376.809 314.227 374.124 315.456 370.577 315.456C367.436 315.456 364.979 314.468 363.205 312.492C361.457 310.491 360.583 307.653 360.583 303.98V288.4H366.739V303.79C366.739 305.918 367.233 307.527 368.221 308.616C369.235 309.68 370.603 310.212 372.325 310.212C374.175 310.212 375.657 309.642 376.771 308.502C377.886 307.337 378.443 305.627 378.443 303.372V288.4H384.599ZM415.303 288.4V315H409.185V293.416H397.177V315H391.059V288.4H415.303ZM14.8902 344L14.8702 335.62L10.7502 342.52H9.31016L5.19016 335.78V344H2.15016V330H4.83016L10.0702 338.7L15.2302 330H17.9102L17.9302 344H14.8902ZM33.848 330V344H30.708V342.3C29.748 343.593 28.3346 344.24 26.468 344.24C24.8146 344.24 23.5213 343.72 22.588 342.68C21.668 341.627 21.208 340.133 21.208 338.2V330H24.448V338.1C24.448 339.22 24.708 340.067 25.228 340.64C25.7613 341.2 26.4813 341.48 27.388 341.48C28.3613 341.48 29.1413 341.18 29.728 340.58C30.3146 339.967 30.608 339.067 30.608 337.88V330H33.848ZM50.0878 330V344H46.8478V338.26H40.4878V344H37.2478V330H40.4878V335.52H46.8478V330H50.0878ZM66.0355 330V344H62.8955V342.3C61.9355 343.593 60.5221 344.24 58.6555 344.24C57.0021 344.24 55.7088 343.72 54.7755 342.68C53.8555 341.627 53.3955 340.133 53.3955 338.2V330H56.6355V338.1C56.6355 339.22 56.8955 340.067 57.4155 340.64C57.9488 341.2 58.6688 341.48 59.5755 341.48C60.5488 341.48 61.3288 341.18 61.9155 340.58C62.5021 339.967 62.7955 339.067 62.7955 337.88V330H66.0355ZM76.0553 344.24C74.6286 344.24 73.3353 343.933 72.1753 343.32C71.0286 342.693 70.122 341.833 69.4553 340.74C68.802 339.633 68.4753 338.387 68.4753 337C68.4753 335.613 68.802 334.373 69.4553 333.28C70.122 332.173 71.0286 331.313 72.1753 330.7C73.3353 330.073 74.6353 329.76 76.0753 329.76C77.2886 329.76 78.382 329.973 79.3553 330.4C80.342 330.827 81.1686 331.44 81.8353 332.24L79.7553 334.16C78.8086 333.067 77.6353 332.52 76.2353 332.52C75.3686 332.52 74.5953 332.713 73.9153 333.1C73.2353 333.473 72.702 334 72.3153 334.68C71.942 335.36 71.7553 336.133 71.7553 337C71.7553 337.867 71.942 338.64 72.3153 339.32C72.702 340 73.2353 340.533 73.9153 340.92C74.5953 341.293 75.3686 341.48 76.2353 341.48C77.6353 341.48 78.8086 340.927 79.7553 339.82L81.8353 341.74C81.1686 342.553 80.342 343.173 79.3553 343.6C78.3686 344.027 77.2686 344.24 76.0553 344.24ZM94.467 333.92C93.267 333.227 91.9804 332.78 90.607 332.58V344H87.367V332.58C85.9937 332.78 84.7004 333.227 83.487 333.92L82.387 331.5C83.347 330.927 84.387 330.493 85.507 330.2C86.627 329.907 87.7804 329.76 88.967 329.76C90.167 329.76 91.327 329.907 92.447 330.2C93.5804 330.493 94.6204 330.927 95.567 331.5L94.467 333.92ZM108.666 342.8C108 343.253 107.16 343.607 106.146 343.86C105.146 344.113 104.08 344.24 102.946 344.24C101.533 344.24 100.333 344.067 99.3464 343.72C98.3597 343.36 97.6131 342.867 97.1064 342.24C96.5997 341.6 96.3464 340.873 96.3464 340.06C96.3464 339.313 96.5531 338.653 96.9664 338.08C97.3797 337.507 97.9464 337.08 98.6664 336.8C98.1197 336.507 97.6931 336.107 97.3864 335.6C97.0931 335.093 96.9464 334.527 96.9464 333.9C96.9464 333.14 97.1797 332.447 97.6464 331.82C98.1131 331.193 98.8197 330.693 99.7664 330.32C100.713 329.947 101.873 329.76 103.246 329.76C104.153 329.76 105.04 329.853 105.906 330.04C106.773 330.213 107.526 330.453 108.166 330.76L107.266 333.24C106.04 332.667 104.74 332.38 103.366 332.38C102.326 332.38 101.54 332.54 101.006 332.86C100.486 333.167 100.226 333.587 100.226 334.12C100.226 334.613 100.4 334.993 100.746 335.26C101.106 335.513 101.646 335.64 102.366 335.64H106.186V338.2H102.166C101.353 338.2 100.726 338.34 100.286 338.62C99.8464 338.9 99.6264 339.307 99.6264 339.84C99.6264 340.4 99.9064 340.84 100.466 341.16C101.04 341.467 101.913 341.62 103.086 341.62C103.913 341.62 104.74 341.513 105.566 341.3C106.393 341.073 107.093 340.76 107.666 340.36L108.666 342.8ZM115.958 329.86C117.918 329.86 119.445 330.34 120.538 331.3C121.645 332.26 122.198 333.607 122.198 335.34C122.198 336.98 121.698 338.267 120.698 339.2C119.712 340.133 118.325 340.6 116.538 340.6C115.952 340.6 115.378 340.54 114.818 340.42C114.272 340.3 113.678 340.1 113.038 339.82V344H109.838V335.72C109.838 333.84 110.358 332.393 111.398 331.38C112.452 330.367 113.972 329.86 115.958 329.86ZM115.978 338.16C116.925 338.16 117.652 337.92 118.158 337.44C118.678 336.96 118.938 336.28 118.938 335.4C118.938 334.507 118.678 333.813 118.158 333.32C117.652 332.827 116.945 332.58 116.038 332.58C115.092 332.58 114.352 332.853 113.818 333.4C113.298 333.947 113.038 334.713 113.038 335.7V337.26C113.438 337.54 113.892 337.76 114.398 337.92C114.918 338.08 115.445 338.16 115.978 338.16ZM131.231 344.24C129.804 344.24 128.511 343.933 127.351 343.32C126.204 342.693 125.298 341.833 124.631 340.74C123.978 339.633 123.651 338.387 123.651 337C123.651 335.613 123.978 334.373 124.631 333.28C125.298 332.173 126.204 331.313 127.351 330.7C128.511 330.073 129.811 329.76 131.251 329.76C132.464 329.76 133.558 329.973 134.531 330.4C135.518 330.827 136.344 331.44 137.011 332.24L134.931 334.16C133.984 333.067 132.811 332.52 131.411 332.52C130.544 332.52 129.771 332.713 129.091 333.1C128.411 333.473 127.878 334 127.491 334.68C127.118 335.36 126.931 336.133 126.931 337C126.931 337.867 127.118 338.64 127.491 339.32C127.878 340 128.411 340.533 129.091 340.92C129.771 341.293 130.544 341.48 131.411 341.48C132.811 341.48 133.984 340.927 134.931 339.82L137.011 341.74C136.344 342.553 135.518 343.173 134.531 343.6C133.544 344.027 132.444 344.24 131.231 344.24ZM149.643 333.92C148.443 333.227 147.156 332.78 145.783 332.58V344H142.543V332.58C141.169 332.78 139.876 333.227 138.663 333.92L137.563 331.5C138.523 330.927 139.563 330.493 140.683 330.2C141.803 329.907 142.956 329.76 144.143 329.76C145.343 329.76 146.503 329.907 147.623 330.2C148.756 330.493 149.796 330.927 150.743 331.5L149.643 333.92ZM162.378 336.7C163.231 336.953 163.884 337.367 164.338 337.94C164.791 338.513 165.018 339.22 165.018 340.06C165.018 341.3 164.544 342.267 163.598 342.96C162.664 343.653 161.324 344 159.578 344H152.678V330H159.198C160.824 330 162.091 330.313 162.998 330.94C163.904 331.567 164.358 332.46 164.358 333.62C164.358 334.313 164.184 334.927 163.838 335.46C163.491 335.98 163.004 336.393 162.378 336.7ZM155.898 335.8H158.918C159.624 335.8 160.158 335.66 160.518 335.38C160.878 335.087 161.058 334.66 161.058 334.1C161.058 333.553 160.871 333.133 160.498 332.84C160.138 332.547 159.611 332.4 158.918 332.4H155.898V335.8ZM159.458 341.6C160.978 341.6 161.738 341 161.738 339.8C161.738 338.64 160.978 338.06 159.458 338.06H155.898V341.6H159.458ZM173.8 329.76C175.093 329.76 176.22 330.013 177.18 330.52C178.14 331.027 178.887 331.773 179.42 332.76C179.953 333.747 180.22 334.94 180.22 336.34V344H176.98V340.64H170.58V344H167.38V336.34C167.38 334.94 167.647 333.747 168.18 332.76C168.713 331.773 169.46 331.027 170.42 330.52C171.38 330.013 172.507 329.76 173.8 329.76ZM176.98 338.04V336.04C176.98 334.88 176.693 334.007 176.12 333.42C175.547 332.82 174.767 332.52 173.78 332.52C172.78 332.52 171.993 332.82 171.42 333.42C170.86 334.007 170.58 334.88 170.58 336.04V338.04H176.98ZM203.842 341.36V346.96H200.862V344H189.162V330H192.382V341.36H198.622V330H201.842V341.36H203.842ZM218.418 330V344H215.278V342.3C214.318 343.593 212.905 344.24 211.038 344.24C209.385 344.24 208.092 343.72 207.158 342.68C206.238 341.627 205.778 340.133 205.778 338.2V330H209.018V338.1C209.018 339.22 209.278 340.067 209.798 340.64C210.332 341.2 211.052 341.48 211.958 341.48C212.932 341.48 213.712 341.18 214.298 340.58C214.885 339.967 215.178 339.067 215.178 337.88V330H218.418ZM229.618 329.78C231.391 329.78 232.945 330.093 234.278 330.72C235.611 331.333 236.631 332.187 237.338 333.28C238.058 334.373 238.418 335.613 238.418 337C238.418 338.387 238.058 339.627 237.338 340.72C236.631 341.813 235.611 342.673 234.278 343.3C232.945 343.913 231.391 344.22 229.618 344.22C227.831 344.22 226.271 343.913 224.938 343.3C223.618 342.673 222.598 341.813 221.878 340.72C221.171 339.627 220.818 338.387 220.818 337C220.818 335.613 221.171 334.373 221.878 333.28C222.598 332.187 223.618 331.333 224.938 330.72C226.271 330.093 227.831 329.78 229.618 329.78ZM223.978 337C223.978 338.173 224.331 339.153 225.038 339.94C225.758 340.727 226.785 341.227 228.118 341.44V332.58C226.785 332.793 225.758 333.293 225.038 334.08C224.331 334.853 223.978 335.827 223.978 337ZM231.118 341.44C232.451 341.227 233.471 340.727 234.178 339.94C234.898 339.153 235.258 338.173 235.258 337C235.258 335.827 234.898 334.853 234.178 334.08C233.471 333.293 232.451 332.793 231.118 332.58V341.44ZM246.72 329.86C248.68 329.86 250.207 330.34 251.3 331.3C252.407 332.26 252.96 333.607 252.96 335.34C252.96 336.98 252.46 338.267 251.46 339.2C250.473 340.133 249.087 340.6 247.3 340.6C246.713 340.6 246.14 340.54 245.58 340.42C245.033 340.3 244.44 340.1 243.8 339.82V344H240.6V335.72C240.6 333.84 241.12 332.393 242.16 331.38C243.213 330.367 244.733 329.86 246.72 329.86ZM246.74 338.16C247.687 338.16 248.413 337.92 248.92 337.44C249.44 336.96 249.7 336.28 249.7 335.4C249.7 334.507 249.44 333.813 248.92 333.32C248.413 332.827 247.707 332.58 246.8 332.58C245.853 332.58 245.113 332.853 244.58 333.4C244.06 333.947 243.8 334.713 243.8 335.7V337.26C244.2 337.54 244.653 337.76 245.16 337.92C245.68 338.08 246.207 338.16 246.74 338.16ZM262.053 344.24C260.599 344.24 259.286 343.927 258.113 343.3C256.953 342.673 256.039 341.813 255.373 340.72C254.719 339.613 254.393 338.373 254.393 337C254.393 335.627 254.719 334.393 255.373 333.3C256.039 332.193 256.953 331.327 258.113 330.7C259.286 330.073 260.599 329.76 262.053 329.76C263.506 329.76 264.813 330.073 265.973 330.7C267.133 331.327 268.046 332.193 268.713 333.3C269.379 334.393 269.713 335.627 269.713 337C269.713 338.373 269.379 339.613 268.713 340.72C268.046 341.813 267.133 342.673 265.973 343.3C264.813 343.927 263.506 344.24 262.053 344.24ZM262.053 341.48C262.879 341.48 263.626 341.293 264.293 340.92C264.959 340.533 265.479 340 265.853 339.32C266.239 338.64 266.433 337.867 266.433 337C266.433 336.133 266.239 335.36 265.853 334.68C265.479 334 264.959 333.473 264.293 333.1C263.626 332.713 262.879 332.52 262.053 332.52C261.226 332.52 260.479 332.713 259.813 333.1C259.146 333.473 258.619 334 258.233 334.68C257.859 335.36 257.673 336.133 257.673 337C257.673 337.867 257.859 338.64 258.233 339.32C258.619 340 259.146 340.533 259.813 340.92C260.479 341.293 261.226 341.48 262.053 341.48ZM281.909 336.7C282.762 336.953 283.415 337.367 283.869 337.94C284.322 338.513 284.549 339.22 284.549 340.06C284.549 341.3 284.075 342.267 283.129 342.96C282.195 343.653 280.855 344 279.109 344H272.209V330H278.729C280.355 330 281.622 330.313 282.529 330.94C283.435 331.567 283.889 332.46 283.889 333.62C283.889 334.313 283.715 334.927 283.369 335.46C283.022 335.98 282.535 336.393 281.909 336.7ZM275.429 335.8H278.449C279.155 335.8 279.689 335.66 280.049 335.38C280.409 335.087 280.589 334.66 280.589 334.1C280.589 333.553 280.402 333.133 280.029 332.84C279.669 332.547 279.142 332.4 278.449 332.4H275.429V335.8ZM278.989 341.6C280.509 341.6 281.269 341 281.269 339.8C281.269 338.64 280.509 338.06 278.989 338.06H275.429V341.6H278.989ZM293.791 344.24C292.338 344.24 291.024 343.927 289.851 343.3C288.691 342.673 287.778 341.813 287.111 340.72C286.458 339.613 286.131 338.373 286.131 337C286.131 335.627 286.458 334.393 287.111 333.3C287.778 332.193 288.691 331.327 289.851 330.7C291.024 330.073 292.338 329.76 293.791 329.76C295.244 329.76 296.551 330.073 297.711 330.7C298.871 331.327 299.784 332.193 300.451 333.3C301.118 334.393 301.451 335.627 301.451 337C301.451 338.373 301.118 339.613 300.451 340.72C299.784 341.813 298.871 342.673 297.711 343.3C296.551 343.927 295.244 344.24 293.791 344.24ZM293.791 341.48C294.618 341.48 295.364 341.293 296.031 340.92C296.698 340.533 297.218 340 297.591 339.32C297.978 338.64 298.171 337.867 298.171 337C298.171 336.133 297.978 335.36 297.591 334.68C297.218 334 296.698 333.473 296.031 333.1C295.364 332.713 294.618 332.52 293.791 332.52C292.964 332.52 292.218 332.713 291.551 333.1C290.884 333.473 290.358 334 289.971 334.68C289.598 335.36 289.411 336.133 289.411 337C289.411 337.867 289.598 338.64 289.971 339.32C290.358 340 290.884 340.533 291.551 340.92C292.218 341.293 292.964 341.48 293.791 341.48ZM313.807 332.64H307.147L307.167 344H303.947V330H313.827L313.807 332.64ZM321.057 344.24C319.603 344.24 318.29 343.927 317.117 343.3C315.957 342.673 315.043 341.813 314.377 340.72C313.723 339.613 313.397 338.373 313.397 337C313.397 335.627 313.723 334.393 314.377 333.3C315.043 332.193 315.957 331.327 317.117 330.7C318.29 330.073 319.603 329.76 321.057 329.76C322.51 329.76 323.817 330.073 324.977 330.7C326.137 331.327 327.05 332.193 327.717 333.3C328.383 334.393 328.717 335.627 328.717 337C328.717 338.373 328.383 339.613 327.717 340.72C327.05 341.813 326.137 342.673 324.977 343.3C323.817 343.927 322.51 344.24 321.057 344.24ZM321.057 341.48C321.883 341.48 322.63 341.293 323.297 340.92C323.963 340.533 324.483 340 324.857 339.32C325.243 338.64 325.437 337.867 325.437 337C325.437 336.133 325.243 335.36 324.857 334.68C324.483 334 323.963 333.473 323.297 333.1C322.63 332.713 321.883 332.52 321.057 332.52C320.23 332.52 319.483 332.713 318.817 333.1C318.15 333.473 317.623 334 317.237 334.68C316.863 335.36 316.677 336.133 316.677 337C316.677 337.867 316.863 338.64 317.237 339.32C317.623 340 318.15 340.533 318.817 340.92C319.483 341.293 320.23 341.48 321.057 341.48ZM342.697 329.86C344.657 329.86 346.183 330.34 347.277 331.3C348.383 332.26 348.937 333.607 348.937 335.34C348.937 336.98 348.437 338.267 347.437 339.2C346.45 340.133 345.063 340.6 343.277 340.6C342.69 340.6 342.117 340.54 341.557 340.42C341.01 340.3 340.417 340.1 339.777 339.82V344H336.577V335.72C336.577 333.84 337.097 332.393 338.137 331.38C339.19 330.367 340.71 329.86 342.697 329.86ZM342.717 338.16C343.663 338.16 344.39 337.92 344.897 337.44C345.417 336.96 345.677 336.28 345.677 335.4C345.677 334.507 345.417 333.813 344.897 333.32C344.39 332.827 343.683 332.58 342.777 332.58C341.83 332.58 341.09 332.853 340.557 333.4C340.037 333.947 339.777 334.713 339.777 335.7V337.26C340.177 337.54 340.63 337.76 341.137 337.92C341.657 338.08 342.183 338.16 342.717 338.16ZM357.179 329.76C358.472 329.76 359.599 330.013 360.559 330.52C361.519 331.027 362.265 331.773 362.799 332.76C363.332 333.747 363.599 334.94 363.599 336.34V344H360.359V340.64H353.959V344H350.759V336.34C350.759 334.94 351.025 333.747 351.559 332.76C352.092 331.773 352.839 331.027 353.799 330.52C354.759 330.013 355.885 329.76 357.179 329.76ZM360.359 338.04V336.04C360.359 334.88 360.072 334.007 359.499 333.42C358.925 332.82 358.145 332.52 357.159 332.52C356.159 332.52 355.372 332.82 354.799 333.42C354.239 334.007 353.959 334.88 353.959 336.04V338.04H360.359ZM374.72 336.7C375.533 336.98 376.166 337.42 376.62 338.02C377.086 338.607 377.32 339.293 377.32 340.08C377.32 340.933 377.04 341.673 376.48 342.3C375.92 342.927 375.16 343.407 374.2 343.74C373.253 344.073 372.213 344.24 371.08 344.24C370.12 344.24 369.16 344.12 368.2 343.88C367.253 343.64 366.353 343.273 365.5 342.78L366.5 340.46C367.113 340.833 367.786 341.12 368.52 341.32C369.266 341.507 369.993 341.6 370.7 341.6C371.66 341.6 372.453 341.427 373.08 341.08C373.72 340.733 374.04 340.247 374.04 339.62C374.04 339.1 373.82 338.707 373.38 338.44C372.953 338.173 372.366 338.04 371.62 338.04H368.2V335.6H371.38C372.033 335.6 372.54 335.467 372.9 335.2C373.273 334.933 373.46 334.567 373.46 334.1C373.46 333.553 373.193 333.127 372.66 332.82C372.14 332.513 371.466 332.36 370.64 332.36C370.026 332.36 369.393 332.447 368.74 332.62C368.086 332.78 367.466 333.027 366.88 333.36L365.9 330.84C367.38 330.08 368.98 329.7 370.7 329.7C371.793 329.7 372.8 329.86 373.72 330.18C374.64 330.5 375.373 330.967 375.92 331.58C376.466 332.193 376.74 332.907 376.74 333.72C376.74 334.387 376.56 334.98 376.2 335.5C375.84 336.02 375.346 336.42 374.72 336.7ZM389.585 336.7C390.438 336.953 391.091 337.367 391.545 337.94C391.998 338.513 392.225 339.22 392.225 340.06C392.225 341.3 391.751 342.267 390.805 342.96C389.871 343.653 388.531 344 386.785 344H379.885V330H386.405C388.031 330 389.298 330.313 390.205 330.94C391.111 331.567 391.565 332.46 391.565 333.62C391.565 334.313 391.391 334.927 391.045 335.46C390.698 335.98 390.211 336.393 389.585 336.7ZM383.105 335.8H386.125C386.831 335.8 387.365 335.66 387.725 335.38C388.085 335.087 388.265 334.66 388.265 334.1C388.265 333.553 388.078 333.133 387.705 332.84C387.345 332.547 386.818 332.4 386.125 332.4H383.105V335.8ZM386.665 341.6C388.185 341.6 388.945 341 388.945 339.8C388.945 338.64 388.185 338.06 386.665 338.06H383.105V341.6H386.665ZM407.227 330V344H404.087V342.3C403.127 343.593 401.714 344.24 399.847 344.24C398.194 344.24 396.9 343.72 395.967 342.68C395.047 341.627 394.587 340.133 394.587 338.2V330H397.827V338.1C397.827 339.22 398.087 340.067 398.607 340.64C399.14 341.2 399.86 341.48 400.767 341.48C401.74 341.48 402.52 341.18 403.107 340.58C403.694 339.967 403.987 339.067 403.987 337.88V330H407.227ZM421.147 333.92C419.947 333.227 418.66 332.78 417.287 332.58V344H414.047V332.58C412.673 332.78 411.38 333.227 410.167 333.92L409.067 331.5C410.027 330.927 411.067 330.493 412.187 330.2C413.307 329.907 414.46 329.76 415.647 329.76C416.847 329.76 418.007 329.907 419.127 330.2C420.26 330.493 421.3 330.927 422.247 331.5L421.147 333.92ZM436.621 330V344H433.481V342.3C432.521 343.593 431.108 344.24 429.241 344.24C427.588 344.24 426.295 343.72 425.361 342.68C424.441 341.627 423.981 340.133 423.981 338.2V330H427.221V338.1C427.221 339.22 427.481 340.067 428.001 340.64C428.535 341.2 429.255 341.48 430.161 341.48C431.135 341.48 431.915 341.18 432.501 340.58C433.088 339.967 433.381 339.067 433.381 337.88V330H436.621ZM451.201 330V344H448.001V340.28H445.041L442.561 344H439.141L442.061 339.78C441.115 339.393 440.388 338.813 439.881 338.04C439.375 337.253 439.121 336.313 439.121 335.22C439.121 334.14 439.368 333.213 439.861 332.44C440.355 331.653 441.055 331.053 441.961 330.64C442.868 330.213 443.935 330 445.161 330H451.201ZM445.241 332.64C444.321 332.64 443.615 332.853 443.121 333.28C442.641 333.707 442.401 334.34 442.401 335.18C442.401 335.993 442.635 336.62 443.101 337.06C443.568 337.5 444.255 337.72 445.161 337.72H448.001V332.64H445.241ZM465.793 338.36H463.553V344H460.333V330H463.553V335.66H465.873L469.553 330H472.973L468.393 336.76L473.113 344H469.433L465.793 338.36ZM481.545 334.22C483.225 334.22 484.551 334.653 485.525 335.52C486.511 336.387 487.005 337.6 487.005 339.16C487.005 340.787 486.458 342.047 485.365 342.94C484.271 343.833 482.718 344.28 480.705 344.28C478.718 344.28 477.211 343.833 476.185 342.94C475.158 342.047 474.645 340.733 474.645 339V330H477.845V335.04C479.111 334.493 480.345 334.22 481.545 334.22ZM491.965 330V344H488.765V330H491.965ZM480.845 341.76C481.765 341.76 482.478 341.54 482.985 341.1C483.491 340.66 483.745 340.047 483.745 339.26C483.745 338.447 483.471 337.82 482.925 337.38C482.391 336.927 481.678 336.7 480.785 336.7C480.291 336.7 479.785 336.78 479.265 336.94C478.745 337.087 478.271 337.3 477.845 337.58V338.92C477.845 339.827 478.105 340.527 478.625 341.02C479.145 341.513 479.885 341.76 480.845 341.76ZM501.271 329.86C503.231 329.86 504.758 330.34 505.851 331.3C506.958 332.26 507.511 333.607 507.511 335.34C507.511 336.98 507.011 338.267 506.011 339.2C505.024 340.133 503.638 340.6 501.851 340.6C501.264 340.6 500.691 340.54 500.131 340.42C499.584 340.3 498.991 340.1 498.351 339.82V344H495.151V335.72C495.151 333.84 495.671 332.393 496.711 331.38C497.764 330.367 499.284 329.86 501.271 329.86ZM501.291 338.16C502.238 338.16 502.964 337.92 503.471 337.44C503.991 336.96 504.251 336.28 504.251 335.4C504.251 334.507 503.991 333.813 503.471 333.32C502.964 332.827 502.258 332.58 501.351 332.58C500.404 332.58 499.664 332.853 499.131 333.4C498.611 333.947 498.351 334.713 498.351 335.7V337.26C498.751 337.54 499.204 337.76 499.711 337.92C500.231 338.08 500.758 338.16 501.291 338.16ZM519.588 332.64H512.928L512.948 344H509.728V330H519.608L519.588 332.64ZM528.244 334.22C529.924 334.22 531.25 334.653 532.224 335.52C533.21 336.387 533.704 337.6 533.704 339.16C533.704 340.787 533.157 342.047 532.064 342.94C530.97 343.833 529.417 344.28 527.404 344.28C525.417 344.28 523.91 343.833 522.884 342.94C521.857 342.047 521.344 340.733 521.344 339V330H524.544V335.04C525.81 334.493 527.044 334.22 528.244 334.22ZM538.664 330V344H535.464V330H538.664ZM527.544 341.76C528.464 341.76 529.177 341.54 529.684 341.1C530.19 340.66 530.444 340.047 530.444 339.26C530.444 338.447 530.17 337.82 529.624 337.38C529.09 336.927 528.377 336.7 527.484 336.7C526.99 336.7 526.484 336.78 525.964 336.94C525.444 337.087 524.97 337.3 524.544 337.58V338.92C524.544 339.827 524.804 340.527 525.324 341.02C525.844 341.513 526.584 341.76 527.544 341.76ZM550.11 336.7C550.923 336.98 551.557 337.42 552.01 338.02C552.477 338.607 552.71 339.293 552.71 340.08C552.71 340.933 552.43 341.673 551.87 342.3C551.31 342.927 550.55 343.407 549.59 343.74C548.643 344.073 547.603 344.24 546.47 344.24C545.51 344.24 544.55 344.12 543.59 343.88C542.643 343.64 541.743 343.273 540.89 342.78L541.89 340.46C542.503 340.833 543.177 341.12 543.91 341.32C544.657 341.507 545.383 341.6 546.09 341.6C547.05 341.6 547.843 341.427 548.47 341.08C549.11 340.733 549.43 340.247 549.43 339.62C549.43 339.1 549.21 338.707 548.77 338.44C548.343 338.173 547.757 338.04 547.01 338.04H543.59V335.6H546.77C547.423 335.6 547.93 335.467 548.29 335.2C548.663 334.933 548.85 334.567 548.85 334.1C548.85 333.553 548.583 333.127 548.05 332.82C547.53 332.513 546.857 332.36 546.03 332.36C545.417 332.36 544.783 332.447 544.13 332.62C543.477 332.78 542.857 333.027 542.27 333.36L541.29 330.84C542.77 330.08 544.37 329.7 546.09 329.7C547.183 329.7 548.19 329.86 549.11 330.18C550.03 330.5 550.763 330.967 551.31 331.58C551.857 332.193 552.13 332.907 552.13 333.72C552.13 334.387 551.95 334.98 551.59 335.5C551.23 336.02 550.737 336.42 550.11 336.7ZM561.895 344.24C560.468 344.24 559.175 343.933 558.015 343.32C556.868 342.693 555.962 341.833 555.295 340.74C554.642 339.633 554.315 338.387 554.315 337C554.315 335.613 554.642 334.373 555.295 333.28C555.962 332.173 556.868 331.313 558.015 330.7C559.175 330.073 560.475 329.76 561.915 329.76C563.128 329.76 564.222 329.973 565.195 330.4C566.182 330.827 567.008 331.44 567.675 332.24L565.595 334.16C564.648 333.067 563.475 332.52 562.075 332.52C561.208 332.52 560.435 332.713 559.755 333.1C559.075 333.473 558.542 334 558.155 334.68C557.782 335.36 557.595 336.133 557.595 337C557.595 337.867 557.782 338.64 558.155 339.32C558.542 340 559.075 340.533 559.755 340.92C560.435 341.293 561.208 341.48 562.075 341.48C563.475 341.48 564.648 340.927 565.595 339.82L567.675 341.74C567.008 342.553 566.182 343.173 565.195 343.6C564.208 344.027 563.108 344.24 561.895 344.24ZM580.307 333.92C579.107 333.227 577.82 332.78 576.447 332.58V344H573.207V332.58C571.834 332.78 570.54 333.227 569.327 333.92L568.227 331.5C569.187 330.927 570.227 330.493 571.347 330.2C572.467 329.907 573.62 329.76 574.807 329.76C576.007 329.76 577.167 329.907 578.287 330.2C579.42 330.493 580.46 330.927 581.407 331.5L580.307 333.92ZM589.366 329.76C590.66 329.76 591.786 330.013 592.746 330.52C593.706 331.027 594.453 331.773 594.986 332.76C595.52 333.747 595.786 334.94 595.786 336.34V344H592.546V340.64H586.146V344H582.946V336.34C582.946 334.94 583.213 333.747 583.746 332.76C584.28 331.773 585.026 331.027 585.986 330.52C586.946 330.013 588.073 329.76 589.366 329.76ZM592.546 338.04V336.04C592.546 334.88 592.26 334.007 591.686 333.42C591.113 332.82 590.333 332.52 589.346 332.52C588.346 332.52 587.56 332.82 586.986 333.42C586.426 334.007 586.146 334.88 586.146 336.04V338.04H592.546ZM611.904 330V344H608.664V338.26H602.304V344H599.064V330H602.304V335.52H608.664V330H611.904ZM621.632 329.76C622.925 329.76 624.052 330.013 625.012 330.52C625.972 331.027 626.719 331.773 627.252 332.76C627.785 333.747 628.052 334.94 628.052 336.34V344H624.812V340.64H618.412V344H615.212V336.34C615.212 334.94 615.479 333.747 616.012 332.76C616.545 331.773 617.292 331.027 618.252 330.52C619.212 330.013 620.339 329.76 621.632 329.76ZM624.812 338.04V336.04C624.812 334.88 624.525 334.007 623.952 333.42C623.379 332.82 622.599 332.52 621.612 332.52C620.612 332.52 619.825 332.82 619.252 333.42C618.692 334.007 618.412 334.88 618.412 336.04V338.04H624.812Z" fill="white"/>
<path d="M123.695 35V7H149.215V35H142.775V10.8L144.255 12.28H128.655L130.135 10.8V35H123.695ZM156.156 35V7H168.276C170.782 7 172.942 7.41333 174.756 8.24C176.569 9.04 177.969 10.2 178.956 11.72C179.942 13.24 180.436 15.0533 180.436 17.16C180.436 19.24 179.942 21.04 178.956 22.56C177.969 24.08 176.569 25.2533 174.756 26.08C172.942 26.88 170.782 27.28 168.276 27.28H159.756L162.636 24.36V35H156.156ZM162.636 25.08L159.756 22H167.916C169.916 22 171.409 21.5733 172.396 20.72C173.382 19.8667 173.876 18.68 173.876 17.16C173.876 15.6133 173.382 14.4133 172.396 13.56C171.409 12.7067 169.916 12.28 167.916 12.28H159.756L162.636 9.2V25.08ZM184.71 35V7H191.15V25.24L204.51 7H210.59V35H204.19V16.8L190.83 35H184.71ZM228.89 35V7H254.41V35H247.97V10.8L249.45 12.28H233.85L235.33 10.8V35H228.89ZM274.751 35.48C272.538 35.48 270.484 35.12 268.591 34.4C266.724 33.68 265.098 32.6667 263.711 31.36C262.351 30.0533 261.284 28.52 260.511 26.76C259.764 25 259.391 23.08 259.391 21C259.391 18.92 259.764 17 260.511 15.24C261.284 13.48 262.364 11.9467 263.751 10.64C265.138 9.33333 266.764 8.32 268.631 7.6C270.498 6.88 272.524 6.52 274.711 6.52C276.924 6.52 278.951 6.88 280.791 7.6C282.658 8.32 284.271 9.33333 285.631 10.64C287.018 11.9467 288.098 13.48 288.871 15.24C289.644 16.9733 290.031 18.8933 290.031 21C290.031 23.08 289.644 25.0133 288.871 26.8C288.098 28.56 287.018 30.0933 285.631 31.4C284.271 32.68 282.658 33.68 280.791 34.4C278.951 35.12 276.938 35.48 274.751 35.48ZM274.711 29.96C275.964 29.96 277.111 29.7467 278.151 29.32C279.218 28.8933 280.151 28.28 280.951 27.48C281.751 26.68 282.364 25.7333 282.791 24.64C283.244 23.5467 283.471 22.3333 283.471 21C283.471 19.6667 283.244 18.4533 282.791 17.36C282.364 16.2667 281.751 15.32 280.951 14.52C280.178 13.72 279.258 13.1067 278.191 12.68C277.124 12.2533 275.964 12.04 274.711 12.04C273.458 12.04 272.298 12.2533 271.231 12.68C270.191 13.1067 269.271 13.72 268.471 14.52C267.671 15.32 267.044 16.2667 266.591 17.36C266.164 18.4533 265.951 19.6667 265.951 21C265.951 22.3067 266.164 23.52 266.591 24.64C267.044 25.7333 267.658 26.68 268.431 27.48C269.231 28.28 270.164 28.8933 271.231 29.32C272.298 29.7467 273.458 29.96 274.711 29.96ZM312.802 32.12V12.28H303.202L303.082 16.36C303.002 18.0933 302.882 19.7333 302.722 21.28C302.588 22.8267 302.375 24.24 302.082 25.52C301.788 26.7733 301.402 27.84 300.922 28.72C300.468 29.6 299.895 30.2267 299.202 30.6L292.282 29.72C293.242 29.7467 294.028 29.4133 294.642 28.72C295.282 28.0267 295.788 27.0533 296.162 25.8C296.535 24.52 296.802 23.0267 296.962 21.32C297.148 19.6133 297.282 17.76 297.362 15.76L297.682 7H319.202V32.12H312.802ZM291.362 40.8L291.402 29.72H323.122V40.8H317.122V35H297.362V40.8H291.362ZM346.044 32.12V12.28H336.444L336.324 16.36C336.244 18.0933 336.124 19.7333 335.964 21.28C335.831 22.8267 335.617 24.24 335.324 25.52C335.031 26.7733 334.644 27.84 334.164 28.72C333.711 29.6 333.137 30.2267 332.444 30.6L325.524 29.72C326.484 29.7467 327.271 29.4133 327.884 28.72C328.524 28.0267 329.031 27.0533 329.404 25.8C329.777 24.52 330.044 23.0267 330.204 21.32C330.391 19.6133 330.524 17.76 330.604 15.76L330.924 7H352.444V32.12H346.044ZM324.604 40.8L324.644 29.72H356.364V40.8H350.364V35H330.604V40.8H324.604ZM366.686 18.28H380.166V23.32H366.686V18.28ZM367.166 29.8H382.406V35H360.726V7H381.886V12.2H367.166V29.8ZM387.64 35V7H399.76C402.267 7 404.427 7.41333 406.24 8.24C408.053 9.04 409.453 10.2 410.44 11.72C411.427 13.24 411.92 15.0533 411.92 17.16C411.92 19.24 411.427 21.04 410.44 22.56C409.453 24.08 408.053 25.2533 406.24 26.08C404.427 26.88 402.267 27.28 399.76 27.28H391.24L394.12 24.36V35H387.64ZM394.12 25.08L391.24 22H399.4C401.4 22 402.893 21.5733 403.88 20.72C404.867 19.8667 405.36 18.68 405.36 17.16C405.36 15.6133 404.867 14.4133 403.88 13.56C402.893 12.7067 401.4 12.28 399.4 12.28H391.24L394.12 9.2V25.08ZM447.25 35L439.73 21.52L445.21 18.36L454.73 35H447.25ZM434.97 23.72V18.32H443.69V23.72H434.97ZM445.57 21.72L439.57 21L447.37 7H454.21L445.57 21.72ZM420.09 35H412.61L422.13 18.36L427.61 21.52L420.09 35ZM436.89 35H430.53V7H436.89V35ZM432.41 23.72H423.65V18.32H432.41V23.72ZM421.81 21.72L413.13 7H419.97L427.73 21L421.81 21.72ZM475.955 35L467.235 21.52L472.475 18.36L483.315 35H475.955ZM457.755 35V7H464.195V35H457.755ZM462.315 23.72V18.32H472.075V23.72H462.315ZM473.075 21.72L467.115 21L476.195 7H483.035L473.075 21.72ZM492.311 18.28H505.791V23.32H492.311V18.28ZM492.791 29.8H508.031V35H486.351V7H507.511V12.2H492.791V29.8Z" fill="white"/>
</svg>
