<svg width="772" height="351" viewBox="0 0 772 351" fill="none" xmlns="http://www.w3.org/2000/svg">
<rect x="385.853" y="242.705" width="40" height="79.9998" transform="rotate(-135 385.853 242.705)" fill="white"/>
<rect x="385.853" y="186.137" width="40" height="79.9998" transform="rotate(-135 385.853 186.137)" fill="white"/>
<rect x="385.853" y="129.568" width="40" height="39.9999" transform="rotate(-135 385.853 129.568)" fill="white"/>
<rect x="449.209" y="179.349" width="30.4" height="30.3999" transform="rotate(-135 449.209 179.349)" fill="white"/>
<rect x="350.78" y="207.633" width="30.4" height="30.3999" transform="rotate(-135 350.78 207.633)" fill="white"/>
<rect x="322.495" y="179.349" width="21.6" height="21.5999" transform="rotate(-135 322.495 179.349)" fill="white"/>
<path d="M298.293 315.456C295.583 315.456 293.125 314.873 290.921 313.708C288.743 312.517 287.02 310.883 285.753 308.806C284.512 306.703 283.891 304.335 283.891 301.7C283.891 299.065 284.512 296.709 285.753 294.632C287.02 292.529 288.743 290.895 290.921 289.73C293.125 288.539 295.595 287.944 298.331 287.944C300.637 287.944 302.714 288.349 304.563 289.16C306.438 289.971 308.009 291.136 309.275 292.656L305.323 296.304C303.525 294.227 301.295 293.188 298.635 293.188C296.989 293.188 295.519 293.555 294.227 294.29C292.935 294.999 291.922 296 291.187 297.292C290.478 298.584 290.123 300.053 290.123 301.7C290.123 303.347 290.478 304.816 291.187 306.108C291.922 307.4 292.935 308.413 294.227 309.148C295.519 309.857 296.989 310.212 298.635 310.212C301.295 310.212 303.525 309.161 305.323 307.058L309.275 310.706C308.009 312.251 306.438 313.429 304.563 314.24C302.689 315.051 300.599 315.456 298.293 315.456ZM325.105 287.944C327.563 287.944 329.703 288.425 331.527 289.388C333.351 290.351 334.77 291.769 335.783 293.644C336.797 295.519 337.303 297.786 337.303 300.446V315H331.147V308.616H318.987V315H312.907V300.446C312.907 297.786 313.414 295.519 314.427 293.644C315.441 291.769 316.859 290.351 318.683 289.388C320.507 288.425 322.648 287.944 325.105 287.944ZM331.147 303.676V299.876C331.147 297.672 330.603 296.013 329.513 294.898C328.424 293.758 326.942 293.188 325.067 293.188C323.167 293.188 321.673 293.758 320.583 294.898C319.519 296.013 318.987 297.672 318.987 299.876V303.676H331.147ZM367.928 288.4V315H361.772V304.094H349.688V315H343.532V288.4H349.688V298.888H361.772V288.4H367.928ZM386.41 287.944C388.867 287.944 391.008 288.425 392.832 289.388C394.656 290.351 396.075 291.769 397.088 293.644C398.101 295.519 398.608 297.786 398.608 300.446V315H392.452V308.616H380.292V315H374.212V300.446C374.212 297.786 374.719 295.519 375.732 293.644C376.745 291.769 378.164 290.351 379.988 289.388C381.812 288.425 383.953 287.944 386.41 287.944ZM392.452 303.676V299.876C392.452 297.672 391.907 296.013 390.818 294.898C389.729 293.758 388.247 293.188 386.372 293.188C384.472 293.188 382.977 293.758 381.888 294.898C380.824 296.013 380.292 297.672 380.292 299.876V303.676H392.452ZM415.894 288.134C419.618 288.134 422.519 289.046 424.596 290.87C426.699 292.694 427.75 295.253 427.75 298.546C427.75 301.662 426.8 304.107 424.9 305.88C423.026 307.653 420.391 308.54 416.996 308.54C415.882 308.54 414.792 308.426 413.728 308.198C412.69 307.97 411.562 307.59 410.346 307.058V315H404.266V299.268C404.266 295.696 405.254 292.947 407.23 291.022C409.232 289.097 412.12 288.134 415.894 288.134ZM415.932 303.904C417.731 303.904 419.112 303.448 420.074 302.536C421.062 301.624 421.556 300.332 421.556 298.66C421.556 296.963 421.062 295.645 420.074 294.708C419.112 293.771 417.769 293.302 416.046 293.302C414.248 293.302 412.842 293.821 411.828 294.86C410.84 295.899 410.346 297.355 410.346 299.23V302.194C411.106 302.726 411.968 303.144 412.93 303.448C413.918 303.752 414.919 303.904 415.932 303.904ZM455.599 288.4V315H449.633V311.77C447.809 314.227 445.124 315.456 441.577 315.456C438.436 315.456 435.979 314.468 434.205 312.492C432.457 310.491 431.583 307.653 431.583 303.98V288.4H437.739V303.79C437.739 305.918 438.233 307.527 439.221 308.616C440.235 309.68 441.603 310.212 443.325 310.212C445.175 310.212 446.657 309.642 447.771 308.502C448.886 307.337 449.443 305.627 449.443 303.372V288.4H455.599ZM486.303 288.4V315H480.185V293.416H468.177V315H462.059V288.4H486.303ZM14.6402 344L14.6202 335.62L10.5002 342.52H9.06016L4.94016 335.78V344H1.90016V330H4.58016L9.82016 338.7L14.9802 330H17.6602L17.6802 344H14.6402ZM33.598 330V344H30.458V342.3C29.498 343.593 28.0846 344.24 26.218 344.24C24.5646 344.24 23.2713 343.72 22.338 342.68C21.418 341.627 20.958 340.133 20.958 338.2V330H24.198V338.1C24.198 339.22 24.458 340.067 24.978 340.64C25.5113 341.2 26.2313 341.48 27.138 341.48C28.1113 341.48 28.8913 341.18 29.478 340.58C30.0646 339.967 30.358 339.067 30.358 337.88V330H33.598ZM49.8378 330V344H46.5978V338.26H40.2378V344H36.9978V330H40.2378V335.52H46.5978V330H49.8378ZM65.7855 330V344H62.6455V342.3C61.6855 343.593 60.2721 344.24 58.4055 344.24C56.7521 344.24 55.4588 343.72 54.5255 342.68C53.6055 341.627 53.1455 340.133 53.1455 338.2V330H56.3855V338.1C56.3855 339.22 56.6455 340.067 57.1655 340.64C57.6988 341.2 58.4188 341.48 59.3255 341.48C60.2988 341.48 61.0788 341.18 61.6655 340.58C62.2521 339.967 62.5455 339.067 62.5455 337.88V330H65.7855ZM75.8053 344.24C74.3786 344.24 73.0853 343.933 71.9253 343.32C70.7786 342.693 69.872 341.833 69.2053 340.74C68.552 339.633 68.2253 338.387 68.2253 337C68.2253 335.613 68.552 334.373 69.2053 333.28C69.872 332.173 70.7786 331.313 71.9253 330.7C73.0853 330.073 74.3853 329.76 75.8253 329.76C77.0386 329.76 78.132 329.973 79.1053 330.4C80.092 330.827 80.9186 331.44 81.5853 332.24L79.5053 334.16C78.5586 333.067 77.3853 332.52 75.9853 332.52C75.1186 332.52 74.3453 332.713 73.6653 333.1C72.9853 333.473 72.452 334 72.0653 334.68C71.692 335.36 71.5053 336.133 71.5053 337C71.5053 337.867 71.692 338.64 72.0653 339.32C72.452 340 72.9853 340.533 73.6653 340.92C74.3453 341.293 75.1186 341.48 75.9853 341.48C77.3853 341.48 78.5586 340.927 79.5053 339.82L81.5853 341.74C80.9186 342.553 80.092 343.173 79.1053 343.6C78.1186 344.027 77.0186 344.24 75.8053 344.24ZM94.217 333.92C93.017 333.227 91.7304 332.78 90.357 332.58V344H87.117V332.58C85.7437 332.78 84.4504 333.227 83.237 333.92L82.137 331.5C83.097 330.927 84.137 330.493 85.257 330.2C86.377 329.907 87.5304 329.76 88.717 329.76C89.917 329.76 91.077 329.907 92.197 330.2C93.3304 330.493 94.3704 330.927 95.317 331.5L94.217 333.92ZM108.416 342.8C107.75 343.253 106.91 343.607 105.896 343.86C104.896 344.113 103.83 344.24 102.696 344.24C101.283 344.24 100.083 344.067 99.0964 343.72C98.1097 343.36 97.3631 342.867 96.8564 342.24C96.3497 341.6 96.0964 340.873 96.0964 340.06C96.0964 339.313 96.3031 338.653 96.7164 338.08C97.1297 337.507 97.6964 337.08 98.4164 336.8C97.8697 336.507 97.4431 336.107 97.1364 335.6C96.8431 335.093 96.6964 334.527 96.6964 333.9C96.6964 333.14 96.9297 332.447 97.3964 331.82C97.8631 331.193 98.5697 330.693 99.5164 330.32C100.463 329.947 101.623 329.76 102.996 329.76C103.903 329.76 104.79 329.853 105.656 330.04C106.523 330.213 107.276 330.453 107.916 330.76L107.016 333.24C105.79 332.667 104.49 332.38 103.116 332.38C102.076 332.38 101.29 332.54 100.756 332.86C100.236 333.167 99.9764 333.587 99.9764 334.12C99.9764 334.613 100.15 334.993 100.496 335.26C100.856 335.513 101.396 335.64 102.116 335.64H105.936V338.2H101.916C101.103 338.2 100.476 338.34 100.036 338.62C99.5964 338.9 99.3764 339.307 99.3764 339.84C99.3764 340.4 99.6564 340.84 100.216 341.16C100.79 341.467 101.663 341.62 102.836 341.62C103.663 341.62 104.49 341.513 105.316 341.3C106.143 341.073 106.843 340.76 107.416 340.36L108.416 342.8ZM115.708 329.86C117.668 329.86 119.195 330.34 120.288 331.3C121.395 332.26 121.948 333.607 121.948 335.34C121.948 336.98 121.448 338.267 120.448 339.2C119.462 340.133 118.075 340.6 116.288 340.6C115.702 340.6 115.128 340.54 114.568 340.42C114.022 340.3 113.428 340.1 112.788 339.82V344H109.588V335.72C109.588 333.84 110.108 332.393 111.148 331.38C112.202 330.367 113.722 329.86 115.708 329.86ZM115.728 338.16C116.675 338.16 117.402 337.92 117.908 337.44C118.428 336.96 118.688 336.28 118.688 335.4C118.688 334.507 118.428 333.813 117.908 333.32C117.402 332.827 116.695 332.58 115.788 332.58C114.842 332.58 114.102 332.853 113.568 333.4C113.048 333.947 112.788 334.713 112.788 335.7V337.26C113.188 337.54 113.642 337.76 114.148 337.92C114.668 338.08 115.195 338.16 115.728 338.16ZM130.981 344.24C129.554 344.24 128.261 343.933 127.101 343.32C125.954 342.693 125.048 341.833 124.381 340.74C123.728 339.633 123.401 338.387 123.401 337C123.401 335.613 123.728 334.373 124.381 333.28C125.048 332.173 125.954 331.313 127.101 330.7C128.261 330.073 129.561 329.76 131.001 329.76C132.214 329.76 133.308 329.973 134.281 330.4C135.268 330.827 136.094 331.44 136.761 332.24L134.681 334.16C133.734 333.067 132.561 332.52 131.161 332.52C130.294 332.52 129.521 332.713 128.841 333.1C128.161 333.473 127.628 334 127.241 334.68C126.868 335.36 126.681 336.133 126.681 337C126.681 337.867 126.868 338.64 127.241 339.32C127.628 340 128.161 340.533 128.841 340.92C129.521 341.293 130.294 341.48 131.161 341.48C132.561 341.48 133.734 340.927 134.681 339.82L136.761 341.74C136.094 342.553 135.268 343.173 134.281 343.6C133.294 344.027 132.194 344.24 130.981 344.24ZM149.393 333.92C148.193 333.227 146.906 332.78 145.533 332.58V344H142.293V332.58C140.919 332.78 139.626 333.227 138.413 333.92L137.313 331.5C138.273 330.927 139.313 330.493 140.433 330.2C141.553 329.907 142.706 329.76 143.893 329.76C145.093 329.76 146.253 329.907 147.373 330.2C148.506 330.493 149.546 330.927 150.493 331.5L149.393 333.92ZM162.128 336.7C162.981 336.953 163.634 337.367 164.088 337.94C164.541 338.513 164.768 339.22 164.768 340.06C164.768 341.3 164.294 342.267 163.348 342.96C162.414 343.653 161.074 344 159.328 344H152.428V330H158.948C160.574 330 161.841 330.313 162.748 330.94C163.654 331.567 164.108 332.46 164.108 333.62C164.108 334.313 163.934 334.927 163.588 335.46C163.241 335.98 162.754 336.393 162.128 336.7ZM155.648 335.8H158.668C159.374 335.8 159.908 335.66 160.268 335.38C160.628 335.087 160.808 334.66 160.808 334.1C160.808 333.553 160.621 333.133 160.248 332.84C159.888 332.547 159.361 332.4 158.668 332.4H155.648V335.8ZM159.208 341.6C160.728 341.6 161.488 341 161.488 339.8C161.488 338.64 160.728 338.06 159.208 338.06H155.648V341.6H159.208ZM174.01 344.24C172.557 344.24 171.243 343.927 170.07 343.3C168.91 342.673 167.997 341.813 167.33 340.72C166.677 339.613 166.35 338.373 166.35 337C166.35 335.627 166.677 334.393 167.33 333.3C167.997 332.193 168.91 331.327 170.07 330.7C171.243 330.073 172.557 329.76 174.01 329.76C175.463 329.76 176.77 330.073 177.93 330.7C179.09 331.327 180.003 332.193 180.67 333.3C181.337 334.393 181.67 335.627 181.67 337C181.67 338.373 181.337 339.613 180.67 340.72C180.003 341.813 179.09 342.673 177.93 343.3C176.77 343.927 175.463 344.24 174.01 344.24ZM174.01 341.48C174.837 341.48 175.583 341.293 176.25 340.92C176.917 340.533 177.437 340 177.81 339.32C178.197 338.64 178.39 337.867 178.39 337C178.39 336.133 178.197 335.36 177.81 334.68C177.437 334 176.917 333.473 176.25 333.1C175.583 332.713 174.837 332.52 174.01 332.52C173.183 332.52 172.437 332.713 171.77 333.1C171.103 333.473 170.577 334 170.19 334.68C169.817 335.36 169.63 336.133 169.63 337C169.63 337.867 169.817 338.64 170.19 339.32C170.577 340 171.103 340.533 171.77 340.92C172.437 341.293 173.183 341.48 174.01 341.48ZM204.51 341.36V346.96H201.53V344H189.83V330H193.05V341.36H199.29V330H202.51V341.36H204.51ZM219.086 330V344H215.946V342.3C214.986 343.593 213.573 344.24 211.706 344.24C210.053 344.24 208.76 343.72 207.826 342.68C206.906 341.627 206.446 340.133 206.446 338.2V330H209.686V338.1C209.686 339.22 209.946 340.067 210.466 340.64C211 341.2 211.72 341.48 212.626 341.48C213.6 341.48 214.38 341.18 214.966 340.58C215.553 339.967 215.846 339.067 215.846 337.88V330H219.086ZM230.286 329.78C232.059 329.78 233.613 330.093 234.946 330.72C236.279 331.333 237.299 332.187 238.006 333.28C238.726 334.373 239.086 335.613 239.086 337C239.086 338.387 238.726 339.627 238.006 340.72C237.299 341.813 236.279 342.673 234.946 343.3C233.613 343.913 232.059 344.22 230.286 344.22C228.499 344.22 226.939 343.913 225.606 343.3C224.286 342.673 223.266 341.813 222.546 340.72C221.839 339.627 221.486 338.387 221.486 337C221.486 335.613 221.839 334.373 222.546 333.28C223.266 332.187 224.286 331.333 225.606 330.72C226.939 330.093 228.499 329.78 230.286 329.78ZM224.646 337C224.646 338.173 224.999 339.153 225.706 339.94C226.426 340.727 227.453 341.227 228.786 341.44V332.58C227.453 332.793 226.426 333.293 225.706 334.08C224.999 334.853 224.646 335.827 224.646 337ZM231.786 341.44C233.119 341.227 234.139 340.727 234.846 339.94C235.566 339.153 235.926 338.173 235.926 337C235.926 335.827 235.566 334.853 234.846 334.08C234.139 333.293 233.119 332.793 231.786 332.58V341.44ZM247.388 329.86C249.348 329.86 250.875 330.34 251.968 331.3C253.075 332.26 253.628 333.607 253.628 335.34C253.628 336.98 253.128 338.267 252.128 339.2C251.141 340.133 249.755 340.6 247.968 340.6C247.381 340.6 246.808 340.54 246.248 340.42C245.701 340.3 245.108 340.1 244.468 339.82V344H241.268V335.72C241.268 333.84 241.788 332.393 242.828 331.38C243.881 330.367 245.401 329.86 247.388 329.86ZM247.408 338.16C248.355 338.16 249.081 337.92 249.588 337.44C250.108 336.96 250.368 336.28 250.368 335.4C250.368 334.507 250.108 333.813 249.588 333.32C249.081 332.827 248.375 332.58 247.468 332.58C246.521 332.58 245.781 332.853 245.248 333.4C244.728 333.947 244.468 334.713 244.468 335.7V337.26C244.868 337.54 245.321 337.76 245.828 337.92C246.348 338.08 246.875 338.16 247.408 338.16ZM262.721 344.24C261.267 344.24 259.954 343.927 258.781 343.3C257.621 342.673 256.707 341.813 256.041 340.72C255.387 339.613 255.061 338.373 255.061 337C255.061 335.627 255.387 334.393 256.041 333.3C256.707 332.193 257.621 331.327 258.781 330.7C259.954 330.073 261.267 329.76 262.721 329.76C264.174 329.76 265.481 330.073 266.641 330.7C267.801 331.327 268.714 332.193 269.381 333.3C270.047 334.393 270.381 335.627 270.381 337C270.381 338.373 270.047 339.613 269.381 340.72C268.714 341.813 267.801 342.673 266.641 343.3C265.481 343.927 264.174 344.24 262.721 344.24ZM262.721 341.48C263.547 341.48 264.294 341.293 264.961 340.92C265.627 340.533 266.147 340 266.521 339.32C266.907 338.64 267.101 337.867 267.101 337C267.101 336.133 266.907 335.36 266.521 334.68C266.147 334 265.627 333.473 264.961 333.1C264.294 332.713 263.547 332.52 262.721 332.52C261.894 332.52 261.147 332.713 260.481 333.1C259.814 333.473 259.287 334 258.901 334.68C258.527 335.36 258.341 336.133 258.341 337C258.341 337.867 258.527 338.64 258.901 339.32C259.287 340 259.814 340.533 260.481 340.92C261.147 341.293 261.894 341.48 262.721 341.48ZM282.577 336.7C283.43 336.953 284.083 337.367 284.537 337.94C284.99 338.513 285.217 339.22 285.217 340.06C285.217 341.3 284.743 342.267 283.797 342.96C282.863 343.653 281.523 344 279.777 344H272.877V330H279.397C281.023 330 282.29 330.313 283.197 330.94C284.103 331.567 284.557 332.46 284.557 333.62C284.557 334.313 284.383 334.927 284.037 335.46C283.69 335.98 283.203 336.393 282.577 336.7ZM276.097 335.8H279.117C279.823 335.8 280.357 335.66 280.717 335.38C281.077 335.087 281.257 334.66 281.257 334.1C281.257 333.553 281.07 333.133 280.697 332.84C280.337 332.547 279.81 332.4 279.117 332.4H276.097V335.8ZM279.657 341.6C281.177 341.6 281.937 341 281.937 339.8C281.937 338.64 281.177 338.06 279.657 338.06H276.097V341.6H279.657ZM294.459 344.24C293.006 344.24 291.692 343.927 290.519 343.3C289.359 342.673 288.446 341.813 287.779 340.72C287.126 339.613 286.799 338.373 286.799 337C286.799 335.627 287.126 334.393 287.779 333.3C288.446 332.193 289.359 331.327 290.519 330.7C291.692 330.073 293.006 329.76 294.459 329.76C295.912 329.76 297.219 330.073 298.379 330.7C299.539 331.327 300.452 332.193 301.119 333.3C301.786 334.393 302.119 335.627 302.119 337C302.119 338.373 301.786 339.613 301.119 340.72C300.452 341.813 299.539 342.673 298.379 343.3C297.219 343.927 295.912 344.24 294.459 344.24ZM294.459 341.48C295.286 341.48 296.032 341.293 296.699 340.92C297.366 340.533 297.886 340 298.259 339.32C298.646 338.64 298.839 337.867 298.839 337C298.839 336.133 298.646 335.36 298.259 334.68C297.886 334 297.366 333.473 296.699 333.1C296.032 332.713 295.286 332.52 294.459 332.52C293.632 332.52 292.886 332.713 292.219 333.1C291.552 333.473 291.026 334 290.639 334.68C290.266 335.36 290.079 336.133 290.079 337C290.079 337.867 290.266 338.64 290.639 339.32C291.026 340 291.552 340.533 292.219 340.92C292.886 341.293 293.632 341.48 294.459 341.48ZM314.475 332.64H307.815L307.835 344H304.615V330H314.495L314.475 332.64ZM321.725 344.24C320.271 344.24 318.958 343.927 317.785 343.3C316.625 342.673 315.711 341.813 315.045 340.72C314.391 339.613 314.065 338.373 314.065 337C314.065 335.627 314.391 334.393 315.045 333.3C315.711 332.193 316.625 331.327 317.785 330.7C318.958 330.073 320.271 329.76 321.725 329.76C323.178 329.76 324.485 330.073 325.645 330.7C326.805 331.327 327.718 332.193 328.385 333.3C329.051 334.393 329.385 335.627 329.385 337C329.385 338.373 329.051 339.613 328.385 340.72C327.718 341.813 326.805 342.673 325.645 343.3C324.485 343.927 323.178 344.24 321.725 344.24ZM321.725 341.48C322.551 341.48 323.298 341.293 323.965 340.92C324.631 340.533 325.151 340 325.525 339.32C325.911 338.64 326.105 337.867 326.105 337C326.105 336.133 325.911 335.36 325.525 334.68C325.151 334 324.631 333.473 323.965 333.1C323.298 332.713 322.551 332.52 321.725 332.52C320.898 332.52 320.151 332.713 319.485 333.1C318.818 333.473 318.291 334 317.905 334.68C317.531 335.36 317.345 336.133 317.345 337C317.345 337.867 317.531 338.64 317.905 339.32C318.291 340 318.818 340.533 319.485 340.92C320.151 341.293 320.898 341.48 321.725 341.48ZM343.365 329.86C345.325 329.86 346.851 330.34 347.945 331.3C349.051 332.26 349.605 333.607 349.605 335.34C349.605 336.98 349.105 338.267 348.105 339.2C347.118 340.133 345.731 340.6 343.945 340.6C343.358 340.6 342.785 340.54 342.225 340.42C341.678 340.3 341.085 340.1 340.445 339.82V344H337.245V335.72C337.245 333.84 337.765 332.393 338.805 331.38C339.858 330.367 341.378 329.86 343.365 329.86ZM343.385 338.16C344.331 338.16 345.058 337.92 345.565 337.44C346.085 336.96 346.345 336.28 346.345 335.4C346.345 334.507 346.085 333.813 345.565 333.32C345.058 332.827 344.351 332.58 343.445 332.58C342.498 332.58 341.758 332.853 341.225 333.4C340.705 333.947 340.445 334.713 340.445 335.7V337.26C340.845 337.54 341.298 337.76 341.805 337.92C342.325 338.08 342.851 338.16 343.385 338.16ZM357.847 329.76C359.14 329.76 360.267 330.013 361.227 330.52C362.187 331.027 362.933 331.773 363.467 332.76C364 333.747 364.267 334.94 364.267 336.34V344H361.027V340.64H354.627V344H351.427V336.34C351.427 334.94 351.693 333.747 352.227 332.76C352.76 331.773 353.507 331.027 354.467 330.52C355.427 330.013 356.553 329.76 357.847 329.76ZM361.027 338.04V336.04C361.027 334.88 360.74 334.007 360.167 333.42C359.593 332.82 358.813 332.52 357.827 332.52C356.827 332.52 356.04 332.82 355.467 333.42C354.907 334.007 354.627 334.88 354.627 336.04V338.04H361.027ZM375.388 336.7C376.201 336.98 376.834 337.42 377.288 338.02C377.754 338.607 377.988 339.293 377.988 340.08C377.988 340.933 377.708 341.673 377.148 342.3C376.588 342.927 375.828 343.407 374.868 343.74C373.921 344.073 372.881 344.24 371.748 344.24C370.788 344.24 369.828 344.12 368.868 343.88C367.921 343.64 367.021 343.273 366.168 342.78L367.168 340.46C367.781 340.833 368.454 341.12 369.188 341.32C369.934 341.507 370.661 341.6 371.368 341.6C372.328 341.6 373.121 341.427 373.748 341.08C374.388 340.733 374.708 340.247 374.708 339.62C374.708 339.1 374.488 338.707 374.048 338.44C373.621 338.173 373.034 338.04 372.288 338.04H368.868V335.6H372.048C372.701 335.6 373.208 335.467 373.568 335.2C373.941 334.933 374.128 334.567 374.128 334.1C374.128 333.553 373.861 333.127 373.328 332.82C372.808 332.513 372.134 332.36 371.308 332.36C370.694 332.36 370.061 332.447 369.408 332.62C368.754 332.78 368.134 333.027 367.548 333.36L366.568 330.84C368.048 330.08 369.648 329.7 371.368 329.7C372.461 329.7 373.468 329.86 374.388 330.18C375.308 330.5 376.041 330.967 376.588 331.58C377.134 332.193 377.408 332.907 377.408 333.72C377.408 334.387 377.228 334.98 376.868 335.5C376.508 336.02 376.014 336.42 375.388 336.7ZM390.253 336.7C391.106 336.953 391.759 337.367 392.213 337.94C392.666 338.513 392.893 339.22 392.893 340.06C392.893 341.3 392.419 342.267 391.473 342.96C390.539 343.653 389.199 344 387.453 344H380.553V330H387.073C388.699 330 389.966 330.313 390.873 330.94C391.779 331.567 392.233 332.46 392.233 333.62C392.233 334.313 392.059 334.927 391.713 335.46C391.366 335.98 390.879 336.393 390.253 336.7ZM383.773 335.8H386.793C387.499 335.8 388.033 335.66 388.393 335.38C388.753 335.087 388.933 334.66 388.933 334.1C388.933 333.553 388.746 333.133 388.373 332.84C388.013 332.547 387.486 332.4 386.793 332.4H383.773V335.8ZM387.333 341.6C388.853 341.6 389.613 341 389.613 339.8C389.613 338.64 388.853 338.06 387.333 338.06H383.773V341.6H387.333ZM407.895 330V344H404.755V342.3C403.795 343.593 402.382 344.24 400.515 344.24C398.862 344.24 397.568 343.72 396.635 342.68C395.715 341.627 395.255 340.133 395.255 338.2V330H398.495V338.1C398.495 339.22 398.755 340.067 399.275 340.64C399.808 341.2 400.528 341.48 401.435 341.48C402.408 341.48 403.188 341.18 403.775 340.58C404.362 339.967 404.655 339.067 404.655 337.88V330H407.895ZM421.815 333.92C420.615 333.227 419.328 332.78 417.955 332.58V344H414.715V332.58C413.341 332.78 412.048 333.227 410.835 333.92L409.735 331.5C410.695 330.927 411.735 330.493 412.855 330.2C413.975 329.907 415.128 329.76 416.315 329.76C417.515 329.76 418.675 329.907 419.795 330.2C420.928 330.493 421.968 330.927 422.915 331.5L421.815 333.92ZM437.289 330V344H434.149V342.3C433.189 343.593 431.776 344.24 429.909 344.24C428.256 344.24 426.963 343.72 426.029 342.68C425.109 341.627 424.649 340.133 424.649 338.2V330H427.889V338.1C427.889 339.22 428.149 340.067 428.669 340.64C429.203 341.2 429.923 341.48 430.829 341.48C431.803 341.48 432.583 341.18 433.169 340.58C433.756 339.967 434.049 339.067 434.049 337.88V330H437.289ZM451.869 330V344H448.669V340.28H445.709L443.229 344H439.809L442.729 339.78C441.783 339.393 441.056 338.813 440.549 338.04C440.043 337.253 439.789 336.313 439.789 335.22C439.789 334.14 440.036 333.213 440.529 332.44C441.023 331.653 441.723 331.053 442.629 330.64C443.536 330.213 444.603 330 445.829 330H451.869ZM445.909 332.64C444.989 332.64 444.283 332.853 443.789 333.28C443.309 333.707 443.069 334.34 443.069 335.18C443.069 335.993 443.303 336.62 443.769 337.06C444.236 337.5 444.923 337.72 445.829 337.72H448.669V332.64H445.909ZM466.461 338.36H464.221V344H461.001V330H464.221V335.66H466.541L470.221 330H473.641L469.061 336.76L473.781 344H470.101L466.461 338.36ZM482.213 334.22C483.893 334.22 485.219 334.653 486.193 335.52C487.179 336.387 487.673 337.6 487.673 339.16C487.673 340.787 487.126 342.047 486.033 342.94C484.939 343.833 483.386 344.28 481.373 344.28C479.386 344.28 477.879 343.833 476.853 342.94C475.826 342.047 475.313 340.733 475.313 339V330H478.513V335.04C479.779 334.493 481.013 334.22 482.213 334.22ZM492.633 330V344H489.433V330H492.633ZM481.513 341.76C482.433 341.76 483.146 341.54 483.653 341.1C484.159 340.66 484.413 340.047 484.413 339.26C484.413 338.447 484.139 337.82 483.593 337.38C483.059 336.927 482.346 336.7 481.453 336.7C480.959 336.7 480.453 336.78 479.933 336.94C479.413 337.087 478.939 337.3 478.513 337.58V338.92C478.513 339.827 478.773 340.527 479.293 341.02C479.813 341.513 480.553 341.76 481.513 341.76ZM501.939 329.86C503.899 329.86 505.426 330.34 506.519 331.3C507.626 332.26 508.179 333.607 508.179 335.34C508.179 336.98 507.679 338.267 506.679 339.2C505.692 340.133 504.306 340.6 502.519 340.6C501.932 340.6 501.359 340.54 500.799 340.42C500.252 340.3 499.659 340.1 499.019 339.82V344H495.819V335.72C495.819 333.84 496.339 332.393 497.379 331.38C498.432 330.367 499.952 329.86 501.939 329.86ZM501.959 338.16C502.906 338.16 503.632 337.92 504.139 337.44C504.659 336.96 504.919 336.28 504.919 335.4C504.919 334.507 504.659 333.813 504.139 333.32C503.632 332.827 502.926 332.58 502.019 332.58C501.072 332.58 500.332 332.853 499.799 333.4C499.279 333.947 499.019 334.713 499.019 335.7V337.26C499.419 337.54 499.872 337.76 500.379 337.92C500.899 338.08 501.426 338.16 501.959 338.16ZM520.256 332.64H513.596L513.616 344H510.396V330H520.276L520.256 332.64ZM528.912 334.22C530.592 334.22 531.918 334.653 532.892 335.52C533.878 336.387 534.372 337.6 534.372 339.16C534.372 340.787 533.825 342.047 532.732 342.94C531.638 343.833 530.085 344.28 528.072 344.28C526.085 344.28 524.578 343.833 523.552 342.94C522.525 342.047 522.012 340.733 522.012 339V330H525.212V335.04C526.478 334.493 527.712 334.22 528.912 334.22ZM539.332 330V344H536.132V330H539.332ZM528.212 341.76C529.132 341.76 529.845 341.54 530.352 341.1C530.858 340.66 531.112 340.047 531.112 339.26C531.112 338.447 530.838 337.82 530.292 337.38C529.758 336.927 529.045 336.7 528.152 336.7C527.658 336.7 527.152 336.78 526.632 336.94C526.112 337.087 525.638 337.3 525.212 337.58V338.92C525.212 339.827 525.472 340.527 525.992 341.02C526.512 341.513 527.252 341.76 528.212 341.76ZM550.778 336.7C551.591 336.98 552.225 337.42 552.678 338.02C553.145 338.607 553.378 339.293 553.378 340.08C553.378 340.933 553.098 341.673 552.538 342.3C551.978 342.927 551.218 343.407 550.258 343.74C549.311 344.073 548.271 344.24 547.138 344.24C546.178 344.24 545.218 344.12 544.258 343.88C543.311 343.64 542.411 343.273 541.558 342.78L542.558 340.46C543.171 340.833 543.845 341.12 544.578 341.32C545.325 341.507 546.051 341.6 546.758 341.6C547.718 341.6 548.511 341.427 549.138 341.08C549.778 340.733 550.098 340.247 550.098 339.62C550.098 339.1 549.878 338.707 549.438 338.44C549.011 338.173 548.425 338.04 547.678 338.04H544.258V335.6H547.438C548.091 335.6 548.598 335.467 548.958 335.2C549.331 334.933 549.518 334.567 549.518 334.1C549.518 333.553 549.251 333.127 548.718 332.82C548.198 332.513 547.525 332.36 546.698 332.36C546.085 332.36 545.451 332.447 544.798 332.62C544.145 332.78 543.525 333.027 542.938 333.36L541.958 330.84C543.438 330.08 545.038 329.7 546.758 329.7C547.851 329.7 548.858 329.86 549.778 330.18C550.698 330.5 551.431 330.967 551.978 331.58C552.525 332.193 552.798 332.907 552.798 333.72C552.798 334.387 552.618 334.98 552.258 335.5C551.898 336.02 551.405 336.42 550.778 336.7ZM562.563 344.24C561.136 344.24 559.843 343.933 558.683 343.32C557.536 342.693 556.63 341.833 555.963 340.74C555.31 339.633 554.983 338.387 554.983 337C554.983 335.613 555.31 334.373 555.963 333.28C556.63 332.173 557.536 331.313 558.683 330.7C559.843 330.073 561.143 329.76 562.583 329.76C563.796 329.76 564.89 329.973 565.863 330.4C566.85 330.827 567.676 331.44 568.343 332.24L566.263 334.16C565.316 333.067 564.143 332.52 562.743 332.52C561.876 332.52 561.103 332.713 560.423 333.1C559.743 333.473 559.21 334 558.823 334.68C558.45 335.36 558.263 336.133 558.263 337C558.263 337.867 558.45 338.64 558.823 339.32C559.21 340 559.743 340.533 560.423 340.92C561.103 341.293 561.876 341.48 562.743 341.48C564.143 341.48 565.316 340.927 566.263 339.82L568.343 341.74C567.676 342.553 566.85 343.173 565.863 343.6C564.876 344.027 563.776 344.24 562.563 344.24ZM575.875 338.36H573.635V344H570.415V330H573.635V335.66H575.955L579.635 330H583.055L578.475 336.76L583.195 344H579.515L575.875 338.36ZM591.334 344.24C589.881 344.24 588.567 343.927 587.394 343.3C586.234 342.673 585.321 341.813 584.654 340.72C584.001 339.613 583.674 338.373 583.674 337C583.674 335.627 584.001 334.393 584.654 333.3C585.321 332.193 586.234 331.327 587.394 330.7C588.567 330.073 589.881 329.76 591.334 329.76C592.787 329.76 594.094 330.073 595.254 330.7C596.414 331.327 597.327 332.193 597.994 333.3C598.661 334.393 598.994 335.627 598.994 337C598.994 338.373 598.661 339.613 597.994 340.72C597.327 341.813 596.414 342.673 595.254 343.3C594.094 343.927 592.787 344.24 591.334 344.24ZM591.334 341.48C592.161 341.48 592.907 341.293 593.574 340.92C594.241 340.533 594.761 340 595.134 339.32C595.521 338.64 595.714 337.867 595.714 337C595.714 336.133 595.521 335.36 595.134 334.68C594.761 334 594.241 333.473 593.574 333.1C592.907 332.713 592.161 332.52 591.334 332.52C590.507 332.52 589.761 332.713 589.094 333.1C588.427 333.473 587.901 334 587.514 334.68C587.141 335.36 586.954 336.133 586.954 337C586.954 337.867 587.141 338.64 587.514 339.32C587.901 340 588.427 340.533 589.094 340.92C589.761 341.293 590.507 341.48 591.334 341.48ZM613.93 330V344H610.79V342.3C609.83 343.593 608.417 344.24 606.55 344.24C604.897 344.24 603.603 343.72 602.67 342.68C601.75 341.627 601.29 340.133 601.29 338.2V330H604.53V338.1C604.53 339.22 604.79 340.067 605.31 340.64C605.843 341.2 606.563 341.48 607.47 341.48C608.443 341.48 609.223 341.18 609.81 340.58C610.397 339.967 610.69 339.067 610.69 337.88V330H613.93ZM607.71 329.1C605.15 329.1 603.857 328.08 603.83 326.04H606.05C606.077 327.013 606.63 327.5 607.71 327.5C608.243 327.5 608.65 327.38 608.93 327.14C609.21 326.887 609.357 326.52 609.37 326.04H611.59C611.577 327.04 611.25 327.8 610.61 328.32C609.97 328.84 609.003 329.1 607.71 329.1ZM628.814 329.86C630.774 329.86 632.301 330.34 633.394 331.3C634.501 332.26 635.054 333.607 635.054 335.34C635.054 336.98 634.554 338.267 633.554 339.2C632.567 340.133 631.181 340.6 629.394 340.6C628.807 340.6 628.234 340.54 627.674 340.42C627.127 340.3 626.534 340.1 625.894 339.82V344H622.694V335.72C622.694 333.84 623.214 332.393 624.254 331.38C625.307 330.367 626.827 329.86 628.814 329.86ZM628.834 338.16C629.781 338.16 630.507 337.92 631.014 337.44C631.534 336.96 631.794 336.28 631.794 335.4C631.794 334.507 631.534 333.813 631.014 333.32C630.507 332.827 629.801 332.58 628.894 332.58C627.947 332.58 627.207 332.853 626.674 333.4C626.154 333.947 625.894 334.713 625.894 335.7V337.26C626.294 337.54 626.747 337.76 627.254 337.92C627.774 338.08 628.301 338.16 628.834 338.16ZM648.729 342.8C648.062 343.253 647.222 343.607 646.209 343.86C645.209 344.113 644.142 344.24 643.009 344.24C641.596 344.24 640.396 344.067 639.409 343.72C638.422 343.36 637.676 342.867 637.169 342.24C636.662 341.6 636.409 340.873 636.409 340.06C636.409 339.313 636.616 338.653 637.029 338.08C637.442 337.507 638.009 337.08 638.729 336.8C638.182 336.507 637.756 336.107 637.449 335.6C637.156 335.093 637.009 334.527 637.009 333.9C637.009 333.14 637.242 332.447 637.709 331.82C638.176 331.193 638.882 330.693 639.829 330.32C640.776 329.947 641.936 329.76 643.309 329.76C644.216 329.76 645.102 329.853 645.969 330.04C646.836 330.213 647.589 330.453 648.229 330.76L647.329 333.24C646.102 332.667 644.802 332.38 643.429 332.38C642.389 332.38 641.602 332.54 641.069 332.86C640.549 333.167 640.289 333.587 640.289 334.12C640.289 334.613 640.462 334.993 640.809 335.26C641.169 335.513 641.709 335.64 642.429 335.64H646.249V338.2H642.229C641.416 338.2 640.789 338.34 640.349 338.62C639.909 338.9 639.689 339.307 639.689 339.84C639.689 340.4 639.969 340.84 640.529 341.16C641.102 341.467 641.976 341.62 643.149 341.62C643.976 341.62 644.802 341.513 645.629 341.3C646.456 341.073 647.156 340.76 647.729 340.36L648.729 342.8ZM657.036 344.24C655.609 344.24 654.316 343.933 653.156 343.32C652.009 342.693 651.102 341.833 650.436 340.74C649.782 339.633 649.456 338.387 649.456 337C649.456 335.613 649.782 334.373 650.436 333.28C651.102 332.173 652.009 331.313 653.156 330.7C654.316 330.073 655.616 329.76 657.056 329.76C658.269 329.76 659.362 329.973 660.336 330.4C661.322 330.827 662.149 331.44 662.816 332.24L660.736 334.16C659.789 333.067 658.616 332.52 657.216 332.52C656.349 332.52 655.576 332.713 654.896 333.1C654.216 333.473 653.682 334 653.296 334.68C652.922 335.36 652.736 336.133 652.736 337C652.736 337.867 652.922 338.64 653.296 339.32C653.682 340 654.216 340.533 654.896 340.92C655.576 341.293 656.349 341.48 657.216 341.48C658.616 341.48 659.789 340.927 660.736 339.82L662.816 341.74C662.149 342.553 661.322 343.173 660.336 343.6C659.349 344.027 658.249 344.24 657.036 344.24ZM677.688 330V344H674.468V332.64H668.148V344H664.928V330H677.688ZM693.578 330V339.62C693.578 341.727 692.991 343.34 691.818 344.46C690.645 345.593 689.025 346.16 686.958 346.16C685.771 346.16 684.685 345.993 683.698 345.66C682.711 345.34 681.871 344.88 681.178 344.28L682.438 341.88C683.705 342.907 685.185 343.42 686.878 343.42C688.051 343.42 688.918 343.127 689.478 342.54C690.051 341.94 690.338 341.02 690.338 339.78V338.92C689.405 340.067 688.085 340.64 686.378 340.64C684.605 340.64 683.238 340.14 682.278 339.14C681.331 338.127 680.858 336.673 680.858 334.78V330H684.098V334.58C684.098 335.673 684.358 336.5 684.878 337.06C685.398 337.62 686.131 337.9 687.078 337.9C688.078 337.9 688.871 337.607 689.458 337.02C690.045 336.433 690.338 335.547 690.338 334.36V330H693.578ZM696.861 330H708.161V332.58H700.081V335.46H703.961C705.654 335.46 706.941 335.813 707.821 336.52C708.714 337.227 709.161 338.247 709.161 339.58C709.161 340.98 708.668 342.067 707.681 342.84C706.694 343.613 705.301 344 703.501 344H696.861V330ZM703.321 341.6C704.148 341.6 704.781 341.44 705.221 341.12C705.661 340.787 705.881 340.307 705.881 339.68C705.881 338.453 705.028 337.84 703.321 337.84H700.081V341.6H703.321ZM718.267 329.76C719.507 329.76 720.593 330.007 721.527 330.5C722.473 330.993 723.207 331.72 723.727 332.68C724.247 333.627 724.507 334.773 724.507 336.12V344H721.247V335.84C721.247 334.747 720.98 333.92 720.447 333.36C719.913 332.8 719.187 332.52 718.267 332.52C717.333 332.52 716.593 332.8 716.047 333.36C715.513 333.92 715.247 334.747 715.247 335.84V344H710.387L710.367 341.36H711.987V336.12C711.987 334.773 712.247 333.627 712.767 332.68C713.287 331.72 714.02 330.993 714.967 330.5C715.913 330.007 717.013 329.76 718.267 329.76ZM740.082 330V344H736.942V342.3C735.982 343.593 734.569 344.24 732.702 344.24C731.049 344.24 729.756 343.72 728.822 342.68C727.902 341.627 727.442 340.133 727.442 338.2V330H730.682V338.1C730.682 339.22 730.942 340.067 731.462 340.64C731.996 341.2 732.716 341.48 733.622 341.48C734.596 341.48 735.376 341.18 735.962 340.58C736.549 339.967 736.842 339.067 736.842 337.88V330H740.082ZM748.902 338.36H746.662V344H743.442V330H746.662V335.66H748.982L752.662 330H756.082L751.502 336.76L756.222 344H752.542L748.902 338.36ZM770.18 330V344H767.04V342.3C766.08 343.593 764.667 344.24 762.8 344.24C761.147 344.24 759.853 343.72 758.92 342.68C758 341.627 757.54 340.133 757.54 338.2V330H760.78V338.1C760.78 339.22 761.04 340.067 761.56 340.64C762.093 341.2 762.813 341.48 763.72 341.48C764.693 341.48 765.473 341.18 766.06 340.58C766.647 339.967 766.94 339.067 766.94 337.88V330H770.18Z" fill="white"/>
<path d="M194.695 35V7H220.215V35H213.775V10.8L215.255 12.28H199.655L201.135 10.8V35H194.695ZM227.156 35V7H239.276C241.782 7 243.942 7.41333 245.756 8.24C247.569 9.04 248.969 10.2 249.956 11.72C250.942 13.24 251.436 15.0533 251.436 17.16C251.436 19.24 250.942 21.04 249.956 22.56C248.969 24.08 247.569 25.2533 245.756 26.08C243.942 26.88 241.782 27.28 239.276 27.28H230.756L233.636 24.36V35H227.156ZM233.636 25.08L230.756 22H238.916C240.916 22 242.409 21.5733 243.396 20.72C244.382 19.8667 244.876 18.68 244.876 17.16C244.876 15.6133 244.382 14.4133 243.396 13.56C242.409 12.7067 240.916 12.28 238.916 12.28H230.756L233.636 9.2V25.08ZM255.71 35V7H262.15V25.24L275.51 7H281.59V35H275.19V16.8L261.83 35H255.71ZM299.89 35V7H325.41V35H318.97V10.8L320.45 12.28H304.85L306.33 10.8V35H299.89ZM345.751 35.48C343.538 35.48 341.484 35.12 339.591 34.4C337.724 33.68 336.098 32.6667 334.711 31.36C333.351 30.0533 332.284 28.52 331.511 26.76C330.764 25 330.391 23.08 330.391 21C330.391 18.92 330.764 17 331.511 15.24C332.284 13.48 333.364 11.9467 334.751 10.64C336.138 9.33333 337.764 8.32 339.631 7.6C341.498 6.88 343.524 6.52 345.711 6.52C347.924 6.52 349.951 6.88 351.791 7.6C353.658 8.32 355.271 9.33333 356.631 10.64C358.018 11.9467 359.098 13.48 359.871 15.24C360.644 16.9733 361.031 18.8933 361.031 21C361.031 23.08 360.644 25.0133 359.871 26.8C359.098 28.56 358.018 30.0933 356.631 31.4C355.271 32.68 353.658 33.68 351.791 34.4C349.951 35.12 347.938 35.48 345.751 35.48ZM345.711 29.96C346.964 29.96 348.111 29.7467 349.151 29.32C350.218 28.8933 351.151 28.28 351.951 27.48C352.751 26.68 353.364 25.7333 353.791 24.64C354.244 23.5467 354.471 22.3333 354.471 21C354.471 19.6667 354.244 18.4533 353.791 17.36C353.364 16.2667 352.751 15.32 351.951 14.52C351.178 13.72 350.258 13.1067 349.191 12.68C348.124 12.2533 346.964 12.04 345.711 12.04C344.458 12.04 343.298 12.2533 342.231 12.68C341.191 13.1067 340.271 13.72 339.471 14.52C338.671 15.32 338.044 16.2667 337.591 17.36C337.164 18.4533 336.951 19.6667 336.951 21C336.951 22.3067 337.164 23.52 337.591 24.64C338.044 25.7333 338.658 26.68 339.431 27.48C340.231 28.28 341.164 28.8933 342.231 29.32C343.298 29.7467 344.458 29.96 345.711 29.96ZM383.802 32.12V12.28H374.202L374.082 16.36C374.002 18.0933 373.882 19.7333 373.722 21.28C373.588 22.8267 373.375 24.24 373.082 25.52C372.788 26.7733 372.402 27.84 371.922 28.72C371.468 29.6 370.895 30.2267 370.202 30.6L363.282 29.72C364.242 29.7467 365.028 29.4133 365.642 28.72C366.282 28.0267 366.788 27.0533 367.162 25.8C367.535 24.52 367.802 23.0267 367.962 21.32C368.148 19.6133 368.282 17.76 368.362 15.76L368.682 7H390.202V32.12H383.802ZM362.362 40.8L362.402 29.72H394.122V40.8H388.122V35H368.362V40.8H362.362ZM417.044 32.12V12.28H407.444L407.324 16.36C407.244 18.0933 407.124 19.7333 406.964 21.28C406.831 22.8267 406.617 24.24 406.324 25.52C406.031 26.7733 405.644 27.84 405.164 28.72C404.711 29.6 404.137 30.2267 403.444 30.6L396.524 29.72C397.484 29.7467 398.271 29.4133 398.884 28.72C399.524 28.0267 400.031 27.0533 400.404 25.8C400.777 24.52 401.044 23.0267 401.204 21.32C401.391 19.6133 401.524 17.76 401.604 15.76L401.924 7H423.444V32.12H417.044ZM395.604 40.8L395.644 29.72H427.364V40.8H421.364V35H401.604V40.8H395.604ZM437.686 18.28H451.166V23.32H437.686V18.28ZM438.166 29.8H453.406V35H431.726V7H452.886V12.2H438.166V29.8ZM458.64 35V7H470.76C473.267 7 475.427 7.41333 477.24 8.24C479.053 9.04 480.453 10.2 481.44 11.72C482.427 13.24 482.92 15.0533 482.92 17.16C482.92 19.24 482.427 21.04 481.44 22.56C480.453 24.08 479.053 25.2533 477.24 26.08C475.427 26.88 473.267 27.28 470.76 27.28H462.24L465.12 24.36V35H458.64ZM465.12 25.08L462.24 22H470.4C472.4 22 473.893 21.5733 474.88 20.72C475.867 19.8667 476.36 18.68 476.36 17.16C476.36 15.6133 475.867 14.4133 474.88 13.56C473.893 12.7067 472.4 12.28 470.4 12.28H462.24L465.12 9.2V25.08ZM518.25 35L510.73 21.52L516.21 18.36L525.73 35H518.25ZM505.97 23.72V18.32H514.69V23.72H505.97ZM516.57 21.72L510.57 21L518.37 7H525.21L516.57 21.72ZM491.09 35H483.61L493.13 18.36L498.61 21.52L491.09 35ZM507.89 35H501.53V7H507.89V35ZM503.41 23.72H494.65V18.32H503.41V23.72ZM492.81 21.72L484.13 7H490.97L498.73 21L492.81 21.72ZM546.955 35L538.235 21.52L543.475 18.36L554.315 35H546.955ZM528.755 35V7H535.195V35H528.755ZM533.315 23.72V18.32H543.075V23.72H533.315ZM544.075 21.72L538.115 21L547.195 7H554.035L544.075 21.72ZM563.311 18.28H576.791V23.32H563.311V18.28ZM563.791 29.8H579.031V35H557.351V7H578.511V12.2H563.791V29.8Z" fill="white"/>
</svg>
