<svg width="64" height="64" viewBox="0 0 64 64" fill="none" xmlns="http://www.w3.org/2000/svg">
<rect x="2" y="2" width="60" height="60" rx="30" stroke="white" stroke-width="4"/>
<path d="M32.0029 25.3339C28.3139 25.3339 25.3383 28.3102 25.3383 32C25.3383 35.6898 28.3139 38.6661 32.0029 38.6661C35.6919 38.6661 38.6675 35.6898 38.6675 32C38.6675 28.3102 35.6919 25.3339 32.0029 25.3339ZM32.0029 36.3338C29.619 36.3338 27.67 34.3903 27.67 32C27.67 29.6097 29.6132 27.6662 32.0029 27.6662C34.3926 27.6662 36.3358 29.6097 36.3358 32C36.3358 34.3903 34.3868 36.3338 32.0029 36.3338ZM40.4946 25.0613C40.4946 25.9257 39.7986 26.6161 38.9401 26.6161C38.0759 26.6161 37.3856 25.9199 37.3856 25.0613C37.3856 24.2026 38.0817 23.5064 38.9401 23.5064C39.7986 23.5064 40.4946 24.2026 40.4946 25.0613ZM44.9086 26.6393C44.81 24.5565 44.3344 22.7116 42.8089 21.1916C41.2892 19.6715 39.4447 19.1958 37.3624 19.0914C35.2163 18.9695 28.7837 18.9695 26.6376 19.0914C24.5611 19.19 22.7166 19.6657 21.1911 21.1858C19.6656 22.7058 19.1958 24.5507 19.0914 26.6335C18.9695 28.7801 18.9695 35.2141 19.0914 37.3607C19.19 39.4435 19.6656 41.2884 21.1911 42.8084C22.7166 44.3285 24.5553 44.8042 26.6376 44.9086C28.7837 45.0305 35.2163 45.0305 37.3624 44.9086C39.4447 44.81 41.2892 44.3343 42.8089 42.8084C44.3286 41.2884 44.8042 39.4435 44.9086 37.3607C45.0305 35.2141 45.0305 28.7859 44.9086 26.6393ZM42.1361 39.664C41.6837 40.8011 40.8078 41.6771 39.6651 42.1354C37.954 42.8142 33.8938 42.6576 32.0029 42.6576C30.112 42.6576 26.046 42.8084 24.3407 42.1354C23.2038 41.6829 22.3279 40.8069 21.8697 39.664C21.1911 37.9525 21.3477 33.8913 21.3477 32C21.3477 30.1087 21.1969 26.0417 21.8697 24.336C22.3221 23.1989 23.198 22.3229 24.3407 21.8646C26.0518 21.1858 30.112 21.3424 32.0029 21.3424C33.8938 21.3424 37.9598 21.1916 39.6651 21.8646C40.802 22.3171 41.6779 23.1931 42.1361 24.336C42.8147 26.0475 42.6581 30.1087 42.6581 32C42.6581 33.8913 42.8147 37.9583 42.1361 39.664Z" fill="white"/>
</svg>
