<svg width="64" height="64" viewBox="0 0 64 64" fill="none" xmlns="http://www.w3.org/2000/svg">
<rect x="2" y="2" width="60" height="60" rx="30" stroke="white" stroke-width="4"/>
<path d="M45.394 24.9729C45.0605 23.8027 44.0778 22.8811 42.8301 22.5683C40.5686 22 31.5 22 31.5 22C31.5 22 22.4315 22 20.1699 22.5683C18.9222 22.8811 17.9395 23.8027 17.606 24.9729C17 27.0939 17 31.5192 17 31.5192C17 31.5192 17 35.9445 17.606 38.0655C17.9395 39.2357 18.9222 40.1189 20.1699 40.4317C22.4315 41 31.5 41 31.5 41C31.5 41 40.5685 41 42.8301 40.4317C44.0778 40.1189 45.0605 39.2357 45.394 38.0655C46 35.9445 46 31.5192 46 31.5192C46 31.5192 46 27.0939 45.394 24.9729ZM28.5341 35.5371V27.5013L36.1136 31.5193L28.5341 35.5371Z" fill="white"/>
</svg>
